{"glyphs":{"0":{"ha":326,"x_min":31,"x_max":296,"o":"m 66 1285 q 84 1301 66 1285 q 164 1318 101 1318 q 261 1285 226 1318 q 296 1188 296 1251 l 296 126 q 261 28 296 61 q 164 -6 226 -6 q 65 28 100 -6 q 31 126 31 61 l 31 1188 q 66 1285 31 1251 m 193 125 l 193 1188 q 164 1228 193 1228 q 133 1188 133 1228 l 133 125 q 164 85 133 85 q 193 125 193 85 z "},"1":{"ha":199,"x_min":6,"x_max":168,"o":"m 99 1314 l 168 1314 l 168 0 l 65 0 l 65 1104 l 6 1104 l 6 1172 q 63 1199 42 1176 q 90 1247 83 1221 q 99 1314 96 1274 z "},"2":{"ha":308,"x_min":21,"x_max":297,"o":"m 297 86 l 297 0 l 21 0 l 21 61 q 47 299 21 176 q 104 505 72 421 q 162 681 136 589 q 188 836 188 774 l 188 1189 q 156 1228 188 1228 q 124 1189 124 1228 l 124 814 l 25 814 l 25 1193 q 60 1285 25 1251 q 160 1318 96 1318 q 254 1287 219 1318 q 289 1200 289 1256 l 289 874 q 263 678 289 788 q 208 482 238 569 q 152 284 178 394 q 126 86 126 174 l 297 86 z "},"3":{"ha":310,"x_min":22,"x_max":288,"o":"m 222 710 q 288 615 288 699 l 288 121 q 252 28 288 60 q 154 -4 217 -4 q 58 28 93 -4 q 22 119 22 60 l 22 603 l 121 603 l 121 124 q 153 86 121 86 q 185 126 185 86 l 185 611 q 174 651 185 640 q 139 663 164 663 l 83 663 l 71 749 l 138 749 q 174 762 164 749 q 183 804 183 775 l 183 1190 q 151 1228 183 1228 q 121 1190 121 1228 l 121 797 l 22 797 l 22 1193 q 57 1286 22 1254 q 156 1318 92 1318 q 250 1288 215 1318 q 285 1200 285 1257 l 285 815 q 272 748 285 771 q 222 715 258 725 l 222 710 z "},"4":{"ha":351,"x_min":8,"x_max":343,"o":"m 253 1314 q 110 415 256 760 l 114 408 l 186 408 l 186 503 q 258 894 251 661 l 288 894 l 288 408 l 343 408 l 343 324 l 288 324 l 288 1 l 186 1 l 186 324 l 8 324 l 8 403 q 150 1314 150 781 l 253 1314 z "},"5":{"ha":313,"x_min":24,"x_max":290,"o":"m 136 689 q 211 742 157 742 q 289 635 289 742 l 289 124 q 254 28 289 61 q 156 -4 219 -4 q 58 29 93 -4 q 24 126 24 63 l 24 588 l 122 588 l 122 124 q 156 86 122 86 q 188 121 188 86 l 188 618 q 157 653 188 653 q 125 626 135 653 l 28 649 l 49 1313 l 290 1313 l 285 1226 l 146 1226 l 129 689 l 136 689 z "},"6":{"ha":325,"x_min":31,"x_max":296,"o":"m 139 669 q 215 725 160 725 q 274 698 251 725 q 296 619 296 671 l 296 124 q 261 29 296 63 q 164 -4 226 -4 q 66 29 101 -4 q 31 126 31 63 l 31 1188 q 65 1285 31 1251 q 161 1318 100 1318 q 258 1286 224 1318 q 293 1193 293 1254 l 293 767 l 194 767 l 194 1190 q 164 1228 194 1228 q 132 1193 132 1228 l 132 669 l 139 669 m 194 121 l 194 599 q 163 636 194 636 q 132 599 132 636 l 132 124 q 163 86 132 86 q 194 121 194 86 z "},"7":{"ha":281,"x_min":14,"x_max":275,"o":"m 14 1313 l 275 1313 l 275 1239 q 147 0 147 643 l 44 0 q 178 1226 44 678 l 14 1226 l 14 1313 z "},"8":{"ha":313,"x_min":22,"x_max":290,"o":"m 86 714 q 25 818 25 731 l 25 1200 q 60 1287 25 1256 q 156 1318 94 1318 q 253 1287 218 1318 q 288 1200 288 1256 l 288 818 q 222 714 288 728 l 222 708 q 290 614 290 692 l 290 118 q 254 27 290 58 q 156 -4 218 -4 q 58 27 93 -4 q 22 118 22 58 l 22 614 q 86 708 22 692 l 86 714 m 186 792 l 186 1190 q 156 1228 186 1228 q 125 1190 125 1228 l 125 792 q 156 749 125 749 q 186 792 186 749 m 188 125 l 188 624 q 156 665 188 665 q 124 624 124 665 l 124 125 q 156 86 124 86 q 188 125 188 86 z "},"9":{"ha":325,"x_min":29,"x_max":294,"o":"m 186 644 q 110 589 165 589 q 51 616 74 589 q 29 694 29 643 l 29 1190 q 64 1285 29 1251 q 161 1318 99 1318 q 259 1285 224 1318 q 294 1188 294 1251 l 294 126 q 260 29 294 63 q 164 -4 225 -4 q 67 28 101 -4 q 32 121 32 60 l 32 547 l 131 547 l 131 124 q 161 86 131 86 q 193 121 193 86 l 193 644 l 186 644 m 131 1193 l 131 715 q 163 678 131 678 q 193 715 193 678 l 193 1190 q 163 1228 193 1228 q 131 1193 131 1228 z "}," ":{"ha":132,"x_min":0,"x_max":0,"o":""},"!":{"ha":171,"x_min":32,"x_max":140,"o":"m 125 190 l 46 190 l 33 711 l 33 1313 l 138 1313 l 138 711 l 125 190 m 32 138 l 140 138 l 140 0 l 32 0 l 32 138 z "},"\"":{"ha":315,"x_min":33,"x_max":282,"o":"m 129 1313 l 117 942 l 47 942 l 33 1313 l 129 1313 m 282 1313 l 269 942 l 200 942 l 186 1313 l 282 1313 z "},"#":{"ha":471,"x_min":3,"x_max":463,"o":"m 454 682 l 363 682 l 353 532 l 442 532 l 433 451 l 346 451 l 304 -139 l 217 -139 l 258 451 l 183 451 l 142 -139 l 56 -139 l 97 451 l 3 451 l 11 532 l 104 532 l 114 682 l 28 682 l 38 763 l 119 763 l 160 1319 l 246 1319 l 206 763 l 281 763 l 321 1319 l 408 1319 l 368 763 l 463 763 l 454 682 m 265 532 l 275 682 l 200 682 l 190 532 l 265 532 z "},"$":{"ha":338,"x_min":29,"x_max":310,"o":"m 222 732 q 289 674 268 706 q 310 583 310 643 l 310 128 q 279 35 310 69 q 194 -6 249 1 l 194 -139 l 143 -139 l 143 -6 q 60 35 90 1 q 31 121 31 68 l 31 556 l 135 556 l 135 125 q 171 85 135 85 q 204 124 204 85 l 204 553 q 163 638 204 613 l 113 664 q 49 722 68 689 q 29 814 29 754 l 29 1192 q 58 1276 29 1243 q 143 1317 88 1310 l 143 1464 l 194 1464 l 194 1317 q 306 1196 306 1307 l 306 831 l 203 831 l 203 1190 q 168 1226 203 1226 q 135 1193 135 1226 l 135 838 q 175 757 135 782 l 222 732 z "},"%":{"ha":481,"x_min":36,"x_max":446,"o":"m 339 1319 l 440 1319 l 142 0 l 39 0 l 339 1319 m 63 1292 q 76 1305 63 1292 q 135 1318 89 1318 q 206 1292 181 1318 q 232 1219 232 1267 l 232 1058 q 206 985 232 1011 q 135 958 179 958 q 63 985 89 958 q 36 1058 36 1011 l 36 1219 q 63 1292 36 1265 m 151 1061 l 151 1215 q 135 1238 151 1238 q 117 1217 117 1238 l 117 1061 q 135 1039 117 1039 q 151 1061 151 1039 m 349 354 q 419 328 393 354 q 446 254 446 301 l 446 94 q 420 20 446 47 q 349 -7 394 -7 q 276 20 303 -7 q 250 94 250 47 l 250 254 q 276 327 250 300 q 349 354 303 354 m 365 96 l 365 251 q 349 272 365 272 q 332 251 332 272 l 332 96 q 349 75 332 75 q 365 96 365 75 z "},"&":{"ha":364,"x_min":21,"x_max":360,"o":"m 360 621 l 303 621 l 303 119 q 329 88 303 88 l 360 88 l 360 0 l 318 0 q 204 65 222 0 q 117 -7 171 -7 q 21 115 21 -7 l 21 564 q 86 669 21 649 q 26 768 26 690 l 26 1197 q 63 1286 26 1254 q 163 1317 99 1318 q 266 1285 229 1317 q 303 1196 303 1254 l 303 747 l 200 747 l 200 1192 q 165 1228 200 1228 q 131 1190 131 1228 l 131 749 q 168 706 131 706 l 360 706 l 360 621 m 163 83 q 199 128 199 83 l 199 621 l 171 621 q 125 575 125 621 l 125 126 q 163 83 125 83 z "},"'":{"ha":163,"x_min":33,"x_max":129,"o":"m 129 1313 l 117 942 l 47 942 l 33 1313 l 129 1313 z "},"(":{"ha":257,"x_min":32,"x_max":243,"o":"m 243 1319 q 139 590 139 1031 q 243 -139 139 150 l 158 -139 q 32 590 32 108 q 158 1319 32 1072 l 243 1319 z "},")":{"ha":257,"x_min":14,"x_max":225,"o":"m 99 1319 q 225 590 225 1072 q 99 -139 225 108 l 14 -139 q 118 590 118 150 q 14 1319 118 1031 l 99 1319 z "},"*":{"ha":278,"x_min":24,"x_max":254,"o":"m 143 1321 l 153 1246 l 203 1301 l 253 1232 l 186 1199 l 254 1169 l 203 1099 l 153 1153 l 143 1079 l 61 1107 l 97 1169 l 24 1157 l 24 1244 l 97 1228 l 60 1294 l 143 1321 z "},"+":{"ha":308,"x_min":24,"x_max":285,"o":"m 285 707 l 285 629 l 196 629 l 196 532 l 114 532 l 114 629 l 24 629 l 24 707 l 114 707 l 114 801 l 196 801 l 196 707 l 285 707 z "},",":{"ha":174,"x_min":32,"x_max":142,"o":"m 33 138 l 142 138 l 142 -53 q 68 -125 142 -125 l 32 -125 l 32 -75 l 56 -75 q 82 -47 82 -75 l 82 0 l 33 0 l 33 138 z "},"-":{"ha":229,"x_min":11,"x_max":217,"o":"m 217 715 l 217 624 l 11 624 l 11 715 l 217 715 z "},".":{"ha":174,"x_min":33,"x_max":142,"o":"m 142 138 l 142 0 l 33 0 l 33 138 l 142 138 z "},"/":{"ha":344,"x_min":0,"x_max":335,"o":"m 236 1319 l 335 1319 l 99 -139 l 0 -139 l 236 1319 z "},":":{"ha":174,"x_min":33,"x_max":142,"o":"m 142 722 l 142 585 l 33 585 l 33 722 l 142 722 m 142 138 l 142 0 l 33 0 l 33 138 l 142 138 z "},";":{"ha":174,"x_min":32,"x_max":142,"o":"m 33 722 l 142 722 l 142 585 l 33 585 l 33 722 m 33 0 l 33 138 l 142 138 l 142 -53 q 68 -125 142 -125 l 32 -125 l 32 -75 l 56 -75 q 82 -47 82 -75 l 82 0 l 33 0 z "},"?":{"ha":326,"x_min":25,"x_max":300,"o":"m 106 182 q 131 441 108 325 q 174 639 153 557 q 196 786 196 721 l 196 1196 q 163 1231 196 1231 q 137 1221 147 1231 q 126 1194 126 1211 l 126 769 l 25 769 l 25 1197 q 62 1287 25 1256 q 163 1318 99 1318 q 263 1288 225 1318 q 300 1201 300 1257 l 300 788 q 276 616 300 704 q 226 419 251 528 q 197 182 200 310 l 106 182 m 206 138 l 206 0 l 97 0 l 97 138 l 206 138 z "},"@":{"ha":490,"x_min":35,"x_max":456,"o":"m 456 26 l 372 26 l 354 99 q 263 19 311 19 q 189 117 189 22 l 189 1021 q 263 1118 189 1118 q 354 1047 310 1118 l 354 1113 q 253 1232 354 1232 q 135 1082 135 1232 l 135 93 q 256 -54 135 -54 l 456 -54 l 456 -142 l 256 -142 q 92 -83 150 -142 q 35 89 35 -25 l 35 1085 q 92 1260 35 1199 q 253 1319 150 1321 q 405 1263 354 1318 q 456 1114 456 1208 l 456 26 m 354 138 l 354 1000 q 317 1028 343 1028 q 290 992 290 1028 l 290 146 q 317 110 290 110 q 354 138 338 110 z "},"A":{"ha":325,"x_min":6,"x_max":321,"o":"m 213 0 l 200 342 l 124 342 l 111 0 l 6 0 l 81 1313 l 243 1313 l 321 0 l 213 0 m 128 435 l 196 435 l 175 997 l 167 1193 l 157 1193 l 149 997 l 128 435 z "},"B":{"ha":339,"x_min":35,"x_max":315,"o":"m 246 663 q 315 569 315 650 l 315 124 q 280 32 315 64 q 183 0 244 0 l 35 0 l 35 1313 l 185 1313 q 276 1282 243 1313 q 310 1194 310 1251 l 310 761 q 246 669 310 682 l 246 663 m 172 1219 l 138 1219 l 138 707 l 172 707 q 207 749 207 707 l 207 1181 q 172 1219 207 1219 m 171 621 l 138 621 l 138 93 l 171 93 q 211 139 211 93 l 211 576 q 171 621 211 621 z "},"C":{"ha":338,"x_min":31,"x_max":308,"o":"m 308 635 l 308 128 q 171 -7 308 -7 q 67 31 103 -7 q 31 138 31 68 l 31 1176 q 67 1281 31 1244 q 171 1318 103 1318 q 308 1186 308 1318 l 308 740 l 204 740 l 204 1185 q 171 1226 204 1226 q 136 1185 136 1226 l 136 128 q 171 85 136 85 q 204 128 204 85 l 204 635 l 308 635 z "},"D":{"ha":342,"x_min":35,"x_max":311,"o":"m 186 1313 q 278 1277 244 1313 q 311 1178 311 1242 l 311 136 q 278 35 311 71 q 186 0 244 0 l 35 0 l 35 1313 l 186 1313 m 206 132 l 206 1182 q 174 1219 206 1219 l 138 1219 l 138 93 l 174 93 q 206 132 206 93 z "},"E":{"ha":254,"x_min":35,"x_max":240,"o":"m 139 93 l 240 93 l 240 0 l 35 0 l 35 1313 l 238 1313 l 238 1219 l 139 1219 l 139 728 l 232 728 l 232 636 l 139 636 l 139 93 z "},"F":{"ha":243,"x_min":35,"x_max":238,"o":"m 238 1219 l 139 1219 l 139 726 l 232 726 l 232 633 l 139 633 l 139 0 l 35 0 l 35 1313 l 238 1313 l 238 1219 z "},"G":{"ha":339,"x_min":31,"x_max":310,"o":"m 210 58 q 126 -7 189 -7 q 56 27 82 -6 q 31 121 31 60 l 31 1176 q 67 1281 31 1244 q 172 1318 103 1318 q 310 1188 310 1318 l 310 760 l 206 760 l 206 1185 q 171 1226 206 1226 q 136 1185 136 1226 l 136 126 q 171 85 136 85 q 196 97 186 85 q 206 126 206 108 l 206 603 l 168 603 l 168 694 l 308 694 l 308 0 l 235 0 l 217 58 l 210 58 z "},"H":{"ha":343,"x_min":35,"x_max":310,"o":"m 204 1313 l 310 1313 l 310 0 l 204 0 l 204 635 l 139 635 l 139 0 l 35 0 l 35 1313 l 139 1313 l 139 728 l 204 728 l 204 1313 z "},"I":{"ha":172,"x_min":35,"x_max":138,"o":"m 35 1313 l 138 1313 l 138 0 l 35 0 l 35 1313 z "},"J":{"ha":329,"x_min":24,"x_max":296,"o":"m 296 1313 l 296 119 q 260 26 296 58 q 160 -6 224 -6 q 60 26 96 -6 q 24 118 24 58 l 24 619 l 129 619 l 129 125 q 160 86 129 86 q 192 125 192 86 l 192 1219 l 68 1219 l 68 1313 l 296 1313 z "},"K":{"ha":343,"x_min":35,"x_max":344,"o":"m 344 0 l 228 0 l 147 624 l 138 624 l 139 0 l 35 0 l 35 1313 l 139 1313 l 139 731 l 146 731 l 226 1313 l 333 1313 l 236 683 l 344 0 z "},"L":{"ha":235,"x_min":35,"x_max":236,"o":"m 138 93 l 236 93 l 236 0 l 35 0 l 35 1313 l 138 1313 l 138 93 z "},"M":{"ha":469,"x_min":35,"x_max":436,"o":"m 240 382 l 253 697 l 293 1313 l 436 1313 l 436 0 l 343 0 l 344 463 l 351 988 l 343 988 l 288 0 l 182 0 l 128 988 l 119 988 l 126 463 l 126 0 l 35 0 l 35 1313 l 181 1313 l 219 697 l 232 382 l 240 382 z "},"N":{"ha":346,"x_min":35,"x_max":313,"o":"m 235 508 l 219 951 l 219 1313 l 313 1313 l 313 0 l 214 0 l 122 850 l 114 850 l 128 404 l 128 0 l 35 0 l 35 1313 l 138 1313 l 226 508 l 235 508 z "},"O":{"ha":342,"x_min":31,"x_max":311,"o":"m 31 1176 q 171 1318 31 1318 q 311 1176 311 1318 l 311 138 q 275 31 311 68 q 171 -7 239 -7 q 67 31 103 -7 q 31 138 31 68 l 31 1176 m 206 128 l 206 1185 q 171 1226 206 1226 q 136 1185 136 1226 l 136 128 q 171 85 136 85 q 196 97 186 85 q 206 128 206 108 z "},"P":{"ha":333,"x_min":35,"x_max":314,"o":"m 176 439 l 138 439 l 138 0 l 35 0 l 35 1313 l 176 1313 q 277 1278 240 1313 q 314 1178 314 1243 l 314 576 q 276 475 314 511 q 176 439 238 439 m 168 532 q 208 582 208 532 l 208 1171 q 168 1219 208 1219 l 138 1219 l 138 532 l 168 532 z "},"Q":{"ha":342,"x_min":31,"x_max":311,"o":"m 311 138 q 263 19 311 56 l 306 -137 l 199 -139 l 167 -7 q 31 138 31 -4 l 31 1176 q 171 1318 31 1318 q 311 1176 311 1318 l 311 138 m 136 128 q 171 85 136 85 q 196 97 186 85 q 206 128 206 108 l 206 1185 q 171 1226 206 1226 q 136 1185 136 1226 l 136 128 z "},"R":{"ha":342,"x_min":35,"x_max":324,"o":"m 324 0 l 219 0 l 185 533 l 138 533 l 138 0 l 35 0 l 35 1313 l 176 1313 q 276 1278 240 1313 q 313 1179 313 1244 l 313 676 q 276 578 313 614 l 324 0 m 139 626 l 165 626 q 207 676 207 626 l 207 1169 q 165 1219 207 1219 l 139 1219 l 139 626 z "},"S":{"ha":338,"x_min":29,"x_max":310,"o":"m 306 831 l 203 831 l 203 1190 q 168 1226 203 1226 q 135 1193 135 1226 l 135 838 q 175 757 135 782 l 222 732 q 289 674 268 706 q 310 583 310 643 l 310 128 q 273 28 310 64 q 172 -7 236 -7 q 69 27 107 -7 q 31 121 31 61 l 31 556 l 135 556 l 135 125 q 171 85 135 85 q 204 124 204 85 l 204 553 q 163 638 204 613 l 113 664 q 49 722 68 689 q 29 814 29 754 l 29 1192 q 65 1284 29 1250 q 171 1318 101 1318 q 306 1196 306 1318 l 306 831 z "},"T":{"ha":271,"x_min":-1,"x_max":271,"o":"m 271 1313 l 271 1219 l 188 1219 l 188 0 l 83 0 l 83 1218 l -1 1218 l -1 1311 l 271 1313 z "},"U":{"ha":342,"x_min":33,"x_max":308,"o":"m 308 1313 l 308 119 q 272 26 308 58 q 171 -7 235 -7 q 70 25 107 -7 q 33 118 33 57 l 33 1313 l 138 1313 l 138 125 q 171 85 138 85 q 203 125 203 85 l 203 1313 l 308 1313 z "},"V":{"ha":321,"x_min":6,"x_max":317,"o":"m 207 1313 l 317 1313 l 239 0 l 82 0 l 6 1313 l 115 1313 l 146 481 l 157 213 l 167 213 l 178 481 l 207 1313 z "},"W":{"ha":507,"x_min":6,"x_max":503,"o":"m 358 365 l 367 365 l 374 654 l 393 1313 l 503 1313 l 426 0 l 307 0 l 268 660 l 256 985 l 249 985 l 239 660 l 199 0 l 79 0 l 6 1313 l 114 1313 l 135 654 l 142 368 l 150 368 l 160 654 l 200 1313 l 307 1313 l 347 654 l 358 365 z "},"X":{"ha":313,"x_min":-1,"x_max":311,"o":"m 151 550 l 144 476 l 108 0 l -1 0 l 92 697 l 10 1313 l 119 1313 l 151 897 l 157 824 l 167 824 l 172 897 l 203 1313 l 310 1313 l 224 696 l 311 0 l 201 0 l 167 476 l 160 550 l 151 550 z "},"Y":{"ha":333,"x_min":4,"x_max":332,"o":"m 174 657 l 186 835 l 218 1313 l 332 1313 l 219 326 l 219 0 l 115 0 l 115 328 l 4 1313 l 118 1313 l 153 835 l 164 657 l 174 657 z "},"Z":{"ha":278,"x_min":10,"x_max":269,"o":"m 122 93 l 269 93 l 269 0 l 10 0 l 10 89 l 147 1219 l 14 1219 l 14 1313 l 258 1313 l 256 1222 l 122 93 z "},"[":{"ha":219,"x_min":33,"x_max":200,"o":"m 138 1240 l 138 -60 l 200 -60 l 200 -139 l 33 -139 l 33 1319 l 200 1319 l 200 1240 l 138 1240 z "},"\\":{"ha":344,"x_min":10,"x_max":344,"o":"m 246 -139 l 10 1319 l 108 1319 l 344 -139 l 246 -139 z "},"]":{"ha":219,"x_min":19,"x_max":186,"o":"m 19 1319 l 186 1319 l 186 -139 l 19 -139 l 19 -60 l 82 -60 l 82 1240 l 19 1240 l 19 1319 z "},"^":{"ha":225,"x_min":21,"x_max":204,"o":"m 204 1167 l 157 1167 l 113 1229 l 69 1167 l 21 1167 l 72 1265 l 157 1265 l 204 1167 z "},"_":{"ha":288,"x_min":13,"x_max":275,"o":"m 275 10 l 275 -76 l 13 -76 l 13 10 l 275 10 z "},"a":{"ha":321,"x_min":24,"x_max":292,"o":"m 207 0 l 196 71 q 104 -7 165 -7 q 46 19 68 -7 q 24 86 24 44 l 24 483 q 115 643 24 603 l 190 675 l 190 1025 q 163 1058 190 1058 q 132 1025 132 1058 l 132 704 l 33 704 l 33 1026 q 66 1115 33 1083 q 163 1146 99 1146 q 292 1019 292 1146 l 292 0 l 207 0 m 192 575 l 160 563 q 125 483 125 544 l 125 121 q 151 83 125 83 q 178 98 167 83 q 190 136 190 113 l 192 575 z "},"b":{"ha":325,"x_min":32,"x_max":297,"o":"m 218 1144 q 276 1119 254 1144 q 297 1046 297 1094 l 297 93 q 276 19 297 44 q 218 -6 254 -6 q 131 69 161 -6 l 124 0 l 32 0 l 32 1319 l 133 1319 l 133 1072 q 218 1144 167 1144 m 167 1056 q 133 1007 133 1056 l 133 132 q 167 83 133 83 q 196 124 196 83 l 196 1015 q 167 1056 196 1056 z "},"c":{"ha":322,"x_min":28,"x_max":294,"o":"m 294 568 l 294 124 q 164 -7 294 -7 q 64 29 100 -7 q 28 133 28 65 l 28 1004 q 63 1110 28 1074 q 164 1146 99 1146 q 261 1113 228 1146 q 294 1017 294 1079 l 294 635 l 196 635 l 196 1011 q 164 1056 196 1056 q 129 1011 129 1056 l 129 129 q 164 83 129 83 q 196 129 196 83 l 196 568 l 294 568 z "},"d":{"ha":325,"x_min":28,"x_max":293,"o":"m 106 1144 q 192 1072 158 1144 l 192 1319 l 293 1319 l 293 0 l 193 0 l 193 69 q 106 -6 163 -6 q 49 19 69 -6 q 28 93 28 44 l 28 1046 q 49 1119 28 1094 q 106 1144 69 1144 m 158 1056 q 129 1015 129 1056 l 129 124 q 158 83 129 83 q 192 132 192 83 l 192 1007 q 158 1056 192 1056 z "},"e":{"ha":324,"x_min":28,"x_max":296,"o":"m 64 1110 q 82 1128 64 1110 q 164 1146 100 1146 q 262 1110 228 1146 q 296 1010 296 1075 l 296 597 l 129 597 l 129 129 q 164 83 129 83 q 196 122 196 83 l 196 554 l 296 554 l 296 119 q 260 27 296 61 q 164 -7 225 -7 q 63 29 99 -7 q 28 133 28 65 l 28 1004 q 64 1110 28 1074 m 164 1057 q 129 1014 129 1057 l 129 683 l 196 683 l 196 1014 q 164 1057 196 1057 z "},"f":{"ha":219,"x_min":3,"x_max":218,"o":"m 175 1249 q 154 1226 154 1249 l 154 1139 l 218 1139 l 218 1053 l 154 1053 l 154 0 l 53 0 l 53 1053 l 3 1053 l 3 1139 l 53 1139 l 53 1233 q 144 1319 53 1319 l 218 1319 l 218 1249 l 175 1249 z "},"g":{"ha":326,"x_min":26,"x_max":294,"o":"m 207 1139 l 294 1139 l 294 -26 q 258 -117 293 -87 q 171 -147 224 -147 l 47 -147 l 47 -58 l 143 -58 q 193 -10 193 -58 l 193 93 q 156 35 176 54 q 106 15 136 15 q 48 40 69 15 q 26 113 26 65 l 26 1049 q 48 1119 26 1094 q 106 1144 69 1144 q 196 1069 158 1144 l 207 1139 m 158 1056 q 129 1017 129 1056 l 129 144 q 158 106 129 106 q 192 153 192 106 l 192 1007 q 158 1056 192 1056 z "},"h":{"ha":326,"x_min":32,"x_max":297,"o":"m 226 1146 q 297 1056 297 1146 l 297 0 l 196 0 l 196 1024 q 169 1054 196 1054 q 144 1042 154 1054 q 133 1011 133 1031 l 133 0 l 32 0 l 32 1319 l 133 1319 l 133 1065 q 226 1146 167 1146 z "},"i":{"ha":164,"x_min":32,"x_max":133,"o":"m 32 1319 l 133 1319 l 133 1176 l 32 1176 l 32 1319 m 32 1139 l 133 1139 l 133 0 l 32 0 l 32 1139 z "},"j":{"ha":167,"x_min":-8,"x_max":138,"o":"m 35 1319 l 138 1319 l 138 1176 l 35 1176 l 35 1319 m 35 1139 l 136 1139 l 136 -51 q 113 -123 136 -99 q 50 -147 89 -147 l -8 -147 l -8 -57 l 15 -57 q 35 -29 35 -57 l 35 1139 z "},"k":{"ha":324,"x_min":32,"x_max":318,"o":"m 133 540 l 133 0 l 32 0 l 32 1319 l 133 1319 l 133 657 l 142 657 l 206 1139 l 311 1139 l 231 606 l 318 0 l 208 0 l 143 540 l 133 540 z "},"l":{"ha":164,"x_min":32,"x_max":133,"o":"m 32 1319 l 133 1319 l 133 0 l 32 0 l 32 1319 z "},"m":{"ha":488,"x_min":32,"x_max":458,"o":"m 389 1146 q 458 1056 458 1146 l 458 0 l 357 0 l 357 1024 q 332 1054 357 1054 q 307 1042 318 1054 q 296 1011 296 1031 l 296 0 l 194 0 l 193 1024 q 169 1054 193 1054 q 144 1042 156 1054 q 133 1011 133 1031 l 133 0 l 32 0 l 32 1139 l 118 1139 l 131 1065 q 226 1146 164 1146 q 293 1068 285 1146 q 389 1146 326 1146 z "},"n":{"ha":326,"x_min":32,"x_max":297,"o":"m 226 1146 q 297 1056 297 1146 l 297 0 l 196 0 l 196 1024 q 169 1054 196 1054 q 144 1042 154 1054 q 133 1011 133 1031 l 133 0 l 32 0 l 32 1139 l 118 1139 l 129 1065 q 226 1146 165 1146 z "},"o":{"ha":325,"x_min":28,"x_max":297,"o":"m 164 1146 q 262 1110 226 1146 q 297 1006 297 1074 l 297 135 q 262 29 297 65 q 163 -7 226 -7 q 63 29 99 -7 q 28 135 28 65 l 28 1006 q 64 1110 28 1074 q 164 1146 100 1146 m 196 129 l 196 1011 q 164 1056 196 1056 q 129 1011 129 1056 l 129 129 q 163 83 129 83 q 196 129 196 83 z "},"p":{"ha":325,"x_min":32,"x_max":297,"o":"m 218 -6 q 133 67 167 -6 l 133 -139 l 32 -139 l 32 1139 l 118 1139 l 129 1069 q 218 1146 160 1146 q 297 1046 297 1143 l 297 93 q 276 19 297 44 q 218 -6 254 -6 m 167 83 q 196 124 196 83 l 196 1015 q 167 1056 196 1056 q 133 1008 133 1056 l 133 132 q 167 83 133 83 z "},"q":{"ha":325,"x_min":28,"x_max":293,"o":"m 106 -6 q 49 19 69 -6 q 28 93 28 44 l 28 1046 q 106 1146 28 1143 q 196 1069 165 1146 l 206 1139 l 293 1139 l 293 -139 l 192 -139 l 192 67 q 106 -6 158 -6 m 158 83 q 192 132 192 83 l 192 1008 q 158 1056 192 1056 q 129 1015 129 1056 l 129 124 q 158 83 129 83 z "},"r":{"ha":308,"x_min":32,"x_max":292,"o":"m 222 1146 q 273 1122 254 1146 q 292 1051 292 1097 l 292 524 l 190 524 l 190 1021 q 167 1054 190 1054 q 133 988 133 1054 l 133 0 l 32 0 l 32 1139 l 118 1139 l 129 1067 q 168 1127 147 1108 q 222 1146 189 1146 z "},"s":{"ha":318,"x_min":24,"x_max":296,"o":"m 217 638 q 278 588 260 618 q 296 504 296 557 l 296 122 q 259 27 296 61 q 161 -7 222 -7 q 61 25 97 -7 q 25 119 25 57 l 25 497 l 126 497 l 126 118 q 160 83 126 83 q 193 117 193 83 l 193 485 q 151 554 193 532 l 99 576 q 24 700 24 610 l 24 1019 q 60 1112 24 1078 q 158 1146 96 1146 q 256 1114 222 1146 q 290 1028 290 1082 l 290 715 l 190 715 l 190 1019 q 158 1057 190 1057 q 126 1024 126 1057 l 126 719 q 164 661 126 679 l 217 638 z "},"t":{"ha":225,"x_min":6,"x_max":221,"o":"m 219 1053 l 157 1053 l 157 133 q 189 90 157 90 l 221 90 l 221 0 l 163 0 q 84 27 113 0 q 56 107 56 54 l 56 1053 l 6 1053 l 6 1139 q 64 1173 49 1139 q 83 1296 79 1207 l 157 1296 l 157 1139 l 219 1139 l 219 1053 z "},"u":{"ha":326,"x_min":29,"x_max":294,"o":"m 193 1139 l 294 1139 l 294 0 l 207 0 l 196 74 q 99 -6 163 -7 q 29 86 29 -6 l 29 1139 l 131 1139 l 131 115 q 157 85 131 85 q 182 97 171 85 q 193 128 193 108 l 193 1139 z "},"v":{"ha":313,"x_min":11,"x_max":301,"o":"m 160 249 l 169 501 l 197 1140 l 301 1140 l 218 0 l 92 0 l 11 1140 l 115 1140 l 143 503 l 153 249 l 160 249 z "},"w":{"ha":469,"x_min":11,"x_max":458,"o":"m 336 321 l 342 519 l 354 1140 l 458 1140 l 401 0 l 283 0 l 249 553 l 242 793 l 232 793 l 224 553 l 188 0 l 68 0 l 11 1140 l 115 1140 l 131 519 l 136 321 l 146 321 l 153 519 l 189 1140 l 283 1140 l 319 519 l 328 321 l 336 321 z "},"x":{"ha":299,"x_min":0,"x_max":299,"o":"m 144 439 l 140 374 l 106 0 l 0 0 l 88 617 l 13 1139 l 119 1139 l 146 806 l 150 753 l 158 753 l 163 806 l 188 1139 l 292 1139 l 211 625 l 299 0 l 192 0 l 158 374 l 153 439 l 144 439 z "},"y":{"ha":310,"x_min":6,"x_max":299,"o":"m 161 247 l 171 488 l 193 1139 l 299 1139 l 218 -21 q 74 -147 201 -147 l 6 -147 l 6 -58 l 54 -58 q 96 -29 92 -58 l 11 1139 l 115 1139 l 142 488 l 151 247 l 161 247 z "},"z":{"ha":247,"x_min":10,"x_max":239,"o":"m 110 88 l 239 88 l 239 0 l 10 0 l 10 82 l 131 1053 l 13 1053 l 13 1139 l 236 1139 l 236 1057 l 110 88 z "},"|":{"ha":171,"x_min":35,"x_max":136,"o":"m 35 1313 l 136 1313 l 136 -139 l 35 -139 l 35 1313 z "},"¡":{"ha":171,"x_min":32,"x_max":140,"o":"m 32 1139 l 140 1139 l 140 1001 l 32 1001 l 32 1139 m 46 949 l 125 949 l 138 428 l 138 -174 l 33 -174 l 33 428 l 46 949 z "},"¢":{"ha":322,"x_min":29,"x_max":296,"o":"m 296 635 l 197 635 l 197 1011 q 165 1056 197 1056 q 131 1011 131 1056 l 131 129 q 165 83 131 83 q 197 129 197 83 l 197 568 l 296 568 l 296 124 q 188 -6 296 6 l 188 -139 l 136 -139 l 136 -4 q 57 38 85 3 q 29 133 29 74 l 29 1004 q 136 1144 29 1126 l 136 1319 l 188 1319 l 188 1144 q 296 1017 296 1133 l 296 635 z "},"£":{"ha":364,"x_min":38,"x_max":354,"o":"m 167 88 l 354 88 l 354 0 l 63 0 l 63 69 q 88 335 75 151 q 100 639 100 518 l 38 639 l 38 686 l 99 686 q 82 788 97 704 q 67 939 67 871 l 67 1189 q 103 1285 67 1251 q 207 1318 140 1318 q 307 1285 272 1318 q 342 1190 342 1251 l 342 838 l 239 838 l 239 1186 q 206 1228 239 1228 q 171 1188 171 1228 l 171 950 q 185 808 171 890 q 201 686 200 726 l 326 686 l 326 639 l 203 639 q 167 88 200 308 z "},"¥":{"ha":333,"x_min":4,"x_max":332,"o":"m 332 1313 l 229 413 l 307 413 l 307 365 l 224 365 l 219 326 l 219 315 l 307 315 l 307 269 l 219 269 l 219 0 l 115 0 l 115 269 l 33 269 l 33 315 l 115 315 l 115 328 l 111 365 l 33 365 l 33 413 l 106 413 l 4 1313 l 118 1313 l 153 835 l 164 657 l 174 657 l 186 835 l 218 1313 l 332 1313 z "},"¦":{"ha":171,"x_min":35,"x_max":136,"o":"m 35 1313 l 136 1313 l 136 713 l 35 713 l 35 1313 m 35 461 l 136 461 l 136 -139 l 35 -139 l 35 461 z "},"§":{"ha":321,"x_min":24,"x_max":296,"o":"m 289 904 l 192 904 l 192 1207 q 160 1240 192 1240 q 125 1206 125 1240 l 125 910 q 164 835 125 857 l 222 804 q 296 688 296 769 l 296 361 q 247 267 296 294 q 296 168 296 233 l 296 -219 q 259 -311 296 -279 q 160 -343 222 -343 q 60 -311 96 -342 q 25 -224 25 -281 l 25 157 l 125 157 l 125 -219 q 160 -254 125 -254 q 193 -219 193 -254 l 193 140 q 154 214 193 193 l 103 240 q 24 372 24 275 l 24 689 q 75 778 24 753 q 24 890 24 813 l 24 1207 q 60 1294 24 1263 q 160 1325 96 1325 q 255 1294 221 1325 q 289 1208 289 1264 l 289 904 m 125 690 l 125 357 q 160 322 125 322 q 193 357 193 322 l 193 690 q 160 725 193 725 q 125 690 125 725 z "},"©":{"ha":557,"x_min":21,"x_max":536,"o":"m 278 1169 q 469 1103 403 1169 q 536 929 536 1038 l 536 235 q 469 60 536 126 q 278 -7 401 -7 q 88 60 154 -7 q 21 235 21 126 l 21 929 q 88 1103 21 1038 q 278 1169 154 1169 m 446 240 l 446 925 q 403 1044 446 1000 q 278 1088 361 1088 q 153 1044 196 1088 q 111 925 111 1000 l 111 240 q 153 120 111 165 q 278 75 196 75 q 403 119 361 75 q 446 240 446 164 m 396 526 l 396 235 q 278 121 396 121 q 188 151 221 121 q 156 240 156 182 l 156 924 q 188 1012 156 982 q 278 1042 221 1042 q 365 1013 333 1042 q 396 929 396 983 l 396 644 l 307 644 l 307 928 q 278 961 307 961 q 249 926 249 961 l 249 238 q 278 201 249 201 q 307 236 307 201 l 307 526 l 396 526 z "},"«":{"ha":435,"x_min":25,"x_max":404,"o":"m 231 1139 l 128 569 l 231 0 l 126 0 l 25 569 l 126 1139 l 231 1139 m 404 1139 l 301 569 l 404 0 l 300 0 l 199 569 l 300 1139 l 404 1139 z "},"®":{"ha":476,"x_min":24,"x_max":453,"o":"m 238 1325 q 396 1268 339 1325 q 453 1115 453 1211 l 453 793 q 396 641 453 699 q 238 583 339 583 q 81 641 138 583 q 24 793 24 699 l 24 1115 q 81 1267 24 1208 q 238 1325 138 1325 m 376 788 l 376 1121 q 342 1218 376 1181 q 238 1256 307 1256 q 135 1218 169 1256 q 100 1121 100 1181 l 100 788 q 135 690 100 728 q 238 651 169 651 q 342 690 307 651 q 376 788 376 728 m 346 732 l 269 732 q 260 781 260 747 l 260 881 q 238 907 260 907 l 219 907 l 219 732 l 144 732 l 144 1181 l 256 1181 q 313 1158 292 1181 q 335 1099 335 1135 l 335 1011 q 283 946 335 956 q 323 926 313 940 q 333 883 333 911 l 333 782 q 346 732 333 751 m 219 1113 l 219 967 l 235 967 q 258 999 258 967 l 258 1083 q 236 1113 258 1113 l 219 1113 z "},"°":{"ha":304,"x_min":19,"x_max":285,"o":"m 153 1061 q 58 1099 96 1061 q 19 1192 19 1136 q 58 1283 19 1247 q 153 1319 96 1319 q 247 1283 208 1319 q 285 1192 285 1247 q 247 1099 285 1136 q 153 1061 208 1061 m 151 1140 q 188 1155 172 1140 q 203 1192 203 1169 q 188 1228 203 1214 q 151 1243 172 1243 q 115 1228 129 1243 q 100 1192 100 1214 q 115 1155 100 1169 q 151 1140 129 1140 z "},"·":{"ha":174,"x_min":33,"x_max":142,"o":"m 142 722 l 142 585 l 33 585 l 33 722 l 142 722 z "},"»":{"ha":435,"x_min":31,"x_max":410,"o":"m 135 1139 l 236 569 l 135 0 l 31 0 l 133 569 l 31 1139 l 135 1139 m 308 1139 l 410 569 l 308 0 l 204 0 l 307 569 l 204 1139 l 308 1139 z "},"¿":{"ha":326,"x_min":26,"x_max":301,"o":"m 121 1001 l 121 1139 l 229 1139 l 229 1001 l 121 1001 m 221 957 q 196 698 218 814 q 152 500 174 582 q 131 353 131 418 l 131 -57 q 164 -92 131 -92 q 190 -82 179 -92 q 200 -56 200 -72 l 200 369 l 301 369 l 301 -58 q 265 -148 301 -117 q 164 -179 228 -179 q 64 -149 101 -179 q 26 -62 26 -118 l 26 351 q 51 523 26 435 q 101 720 75 611 q 129 957 126 829 l 221 957 z "},"À":{"ha":325,"x_min":6,"x_max":321,"o":"m 204 1339 l 153 1339 l 65 1438 l 153 1438 l 204 1339 m 213 0 l 200 342 l 124 342 l 111 0 l 6 0 l 81 1313 l 243 1313 l 321 0 l 213 0 m 128 435 l 196 435 l 175 997 l 167 1193 l 157 1193 l 149 997 l 128 435 z "},"Á":{"ha":325,"x_min":6,"x_max":321,"o":"m 263 1439 l 175 1340 l 124 1340 l 175 1439 l 263 1439 m 213 0 l 200 342 l 124 342 l 111 0 l 6 0 l 81 1313 l 243 1313 l 321 0 l 213 0 m 128 435 l 196 435 l 175 997 l 167 1193 l 157 1193 l 149 997 l 128 435 z "},"Â":{"ha":325,"x_min":6,"x_max":321,"o":"m 163 1403 l 119 1340 l 71 1340 l 122 1439 l 207 1439 l 254 1340 l 207 1340 l 163 1403 m 213 0 l 200 342 l 124 342 l 111 0 l 6 0 l 81 1313 l 243 1313 l 321 0 l 213 0 m 128 435 l 196 435 l 175 997 l 167 1193 l 157 1193 l 149 997 l 128 435 z "},"Ã":{"ha":325,"x_min":6,"x_max":321,"o":"m 126 1390 q 113 1340 113 1390 l 63 1340 q 124 1439 63 1439 q 141 1437 133 1439 q 156 1429 149 1435 q 167 1421 164 1424 q 179 1408 171 1418 l 188 1399 q 203 1383 196 1383 q 217 1435 218 1383 l 267 1435 q 206 1336 267 1336 q 190 1338 197 1336 q 178 1342 183 1340 q 167 1350 174 1344 q 158 1358 160 1356 q 149 1368 156 1360 l 142 1376 q 126 1390 133 1390 m 213 0 l 200 342 l 124 342 l 111 0 l 6 0 l 81 1313 l 243 1313 l 321 0 l 213 0 m 128 435 l 196 435 l 175 997 l 167 1193 l 157 1193 l 149 997 l 128 435 z "},"Ä":{"ha":325,"x_min":6,"x_max":321,"o":"m 143 1439 l 143 1340 l 71 1340 l 71 1439 l 143 1439 m 256 1439 l 256 1340 l 185 1340 l 185 1439 l 256 1439 m 213 0 l 200 342 l 124 342 l 111 0 l 6 0 l 81 1313 l 243 1313 l 321 0 l 213 0 m 128 435 l 196 435 l 175 997 l 167 1193 l 157 1193 l 149 997 l 128 435 z "},"Å":{"ha":325,"x_min":6,"x_max":321,"o":"m 167 1326 q 124 1342 140 1326 q 107 1383 107 1358 q 124 1424 107 1408 q 167 1439 140 1439 q 208 1424 192 1439 q 224 1383 224 1408 q 207 1342 224 1358 q 167 1326 190 1326 m 165 1408 q 140 1383 140 1408 q 165 1358 140 1358 q 183 1365 175 1358 q 190 1383 190 1372 q 183 1401 190 1394 q 165 1408 175 1408 m 213 0 l 200 342 l 124 342 l 111 0 l 6 0 l 81 1313 l 243 1313 l 321 0 l 213 0 m 128 435 l 196 435 l 175 997 l 167 1193 l 157 1193 l 149 997 l 128 435 z "},"Æ":{"ha":436,"x_min":6,"x_max":421,"o":"m 319 93 l 421 93 l 421 0 l 215 0 l 215 336 l 133 336 l 111 0 l 6 0 l 147 1313 l 418 1313 l 418 1219 l 319 1219 l 319 728 l 413 728 l 413 636 l 319 636 l 319 93 m 151 428 l 215 428 l 215 1183 l 208 1183 l 185 967 l 151 428 z "},"Ç":{"ha":338,"x_min":31,"x_max":308,"o":"m 308 740 l 204 740 l 204 1185 q 171 1226 204 1226 q 136 1185 136 1226 l 136 128 q 171 85 136 85 q 204 128 204 85 l 204 635 l 308 635 l 308 128 q 172 -7 308 -7 l 147 -53 q 189 -28 165 -28 q 222 -69 222 -28 l 222 -87 q 205 -130 222 -115 q 160 -144 188 -144 q 97 -89 97 -144 l 97 -78 l 150 -78 l 150 -97 q 158 -110 150 -110 q 167 -97 167 -110 l 167 -78 q 151 -60 167 -60 l 101 -60 l 132 -3 q 31 138 31 17 l 31 1176 q 67 1281 31 1244 q 171 1318 103 1318 q 308 1186 308 1318 l 308 740 z "},"È":{"ha":254,"x_min":35,"x_max":240,"o":"m 136 1438 l 188 1339 l 136 1339 l 49 1438 l 136 1438 m 139 93 l 240 93 l 240 0 l 35 0 l 35 1313 l 238 1313 l 238 1219 l 139 1219 l 139 728 l 232 728 l 232 636 l 139 636 l 139 93 z "},"É":{"ha":254,"x_min":35,"x_max":246,"o":"m 158 1439 l 246 1439 l 158 1340 l 107 1340 l 158 1439 m 139 93 l 240 93 l 240 0 l 35 0 l 35 1313 l 238 1313 l 238 1219 l 139 1219 l 139 728 l 232 728 l 232 636 l 139 636 l 139 93 z "},"Ê":{"ha":254,"x_min":35,"x_max":240,"o":"m 238 1340 l 190 1340 l 146 1403 l 103 1340 l 54 1340 l 106 1439 l 190 1439 l 238 1340 m 139 93 l 240 93 l 240 0 l 35 0 l 35 1313 l 238 1313 l 238 1219 l 139 1219 l 139 728 l 232 728 l 232 636 l 139 636 l 139 93 z "},"Ë":{"ha":254,"x_min":35,"x_max":240,"o":"m 54 1439 l 126 1439 l 126 1340 l 54 1340 l 54 1439 m 168 1439 l 239 1439 l 239 1340 l 168 1340 l 168 1439 m 139 93 l 240 93 l 240 0 l 35 0 l 35 1313 l 238 1313 l 238 1219 l 139 1219 l 139 728 l 232 728 l 232 636 l 139 636 l 139 93 z "},"Ì":{"ha":172,"x_min":-11,"x_max":138,"o":"m 76 1438 l 128 1339 l 76 1339 l -11 1438 l 76 1438 m 35 1313 l 138 1313 l 138 0 l 35 0 l 35 1313 z "},"Í":{"ha":172,"x_min":35,"x_max":186,"o":"m 99 1439 l 186 1439 l 99 1340 l 47 1340 l 99 1439 m 35 1313 l 138 1313 l 138 0 l 35 0 l 35 1313 z "},"Î":{"ha":172,"x_min":-6,"x_max":178,"o":"m 178 1340 l 131 1340 l 86 1403 l 43 1340 l -6 1340 l 46 1439 l 131 1439 l 178 1340 m 35 1313 l 138 1313 l 138 0 l 35 0 l 35 1313 z "},"Ï":{"ha":172,"x_min":-6,"x_max":179,"o":"m -6 1439 l 67 1439 l 67 1340 l -6 1340 l -6 1439 m 108 1439 l 179 1439 l 179 1340 l 108 1340 l 108 1439 m 35 1313 l 138 1313 l 138 0 l 35 0 l 35 1313 z "},"Ð":{"ha":342,"x_min":1,"x_max":311,"o":"m 186 1313 q 278 1277 244 1313 q 311 1178 311 1242 l 311 136 q 278 35 311 71 q 186 0 244 0 l 35 0 l 35 632 l 1 632 l 1 683 l 35 683 l 35 1313 l 186 1313 m 206 132 l 206 1182 q 174 1219 206 1219 l 138 1219 l 138 683 l 179 683 l 179 632 l 138 632 l 138 93 l 174 93 q 206 132 206 93 z "},"Ñ":{"ha":346,"x_min":35,"x_max":313,"o":"m 143 1390 q 129 1340 129 1390 l 79 1340 q 140 1439 79 1439 q 158 1437 150 1439 q 173 1429 165 1435 q 184 1421 181 1424 q 196 1408 188 1418 l 204 1399 q 219 1383 213 1383 q 233 1435 235 1383 l 283 1435 q 222 1336 283 1336 q 207 1338 214 1336 q 195 1342 200 1340 q 183 1350 190 1344 q 174 1358 176 1356 q 165 1368 172 1360 l 158 1376 q 143 1390 150 1390 m 219 1313 l 313 1313 l 313 0 l 214 0 l 122 850 l 114 850 l 128 404 l 128 0 l 35 0 l 35 1313 l 138 1313 l 226 508 l 235 508 l 219 951 l 219 1313 z "},"Ò":{"ha":342,"x_min":31,"x_max":311,"o":"m 161 1439 l 213 1340 l 161 1340 l 74 1439 l 161 1439 m 31 1176 q 171 1318 31 1318 q 311 1176 311 1318 l 311 138 q 275 31 311 68 q 171 -7 239 -7 q 67 31 103 -7 q 31 138 31 68 l 31 1176 m 206 128 l 206 1185 q 171 1226 206 1226 q 136 1185 136 1226 l 136 128 q 171 85 136 85 q 196 97 186 85 q 206 128 206 108 z "},"Ó":{"ha":342,"x_min":31,"x_max":311,"o":"m 183 1440 l 271 1440 l 183 1342 l 132 1342 l 183 1440 m 31 1176 q 171 1318 31 1318 q 311 1176 311 1318 l 311 138 q 275 31 311 68 q 171 -7 239 -7 q 67 31 103 -7 q 31 138 31 68 l 31 1176 m 206 128 l 206 1185 q 171 1226 206 1226 q 136 1185 136 1226 l 136 128 q 171 85 136 85 q 196 97 186 85 q 206 128 206 108 z "},"Ô":{"ha":342,"x_min":31,"x_max":311,"o":"m 263 1342 l 215 1342 l 171 1404 l 128 1342 l 79 1342 l 131 1440 l 215 1440 l 263 1342 m 31 1176 q 171 1318 31 1318 q 311 1176 311 1318 l 311 138 q 275 31 311 68 q 171 -7 239 -7 q 67 31 103 -7 q 31 138 31 68 l 31 1176 m 206 128 l 206 1185 q 171 1226 206 1226 q 136 1185 136 1226 l 136 128 q 171 85 136 85 q 196 97 186 85 q 206 128 206 108 z "},"Õ":{"ha":342,"x_min":31,"x_max":311,"o":"m 135 1392 q 121 1342 121 1392 l 71 1342 q 132 1440 71 1440 q 149 1438 142 1440 q 165 1431 157 1436 q 176 1422 172 1425 q 188 1410 179 1419 l 196 1400 q 211 1385 204 1385 q 225 1436 226 1385 l 275 1436 q 214 1338 275 1338 q 199 1340 206 1338 q 187 1344 192 1342 q 175 1351 182 1346 q 166 1359 168 1357 q 157 1369 164 1361 l 150 1378 q 135 1392 142 1392 m 31 1176 q 171 1318 31 1318 q 311 1176 311 1318 l 311 138 q 275 31 311 68 q 171 -7 239 -7 q 67 31 103 -7 q 31 138 31 68 l 31 1176 m 206 128 l 206 1185 q 171 1226 206 1226 q 136 1185 136 1226 l 136 128 q 171 85 136 85 q 196 97 186 85 q 206 128 206 108 z "},"Ö":{"ha":342,"x_min":31,"x_max":311,"o":"m 79 1440 l 151 1440 l 151 1342 l 79 1342 l 79 1440 m 193 1440 l 264 1440 l 264 1342 l 193 1342 l 193 1440 m 31 1176 q 171 1318 31 1318 q 311 1176 311 1318 l 311 138 q 275 31 311 68 q 171 -7 239 -7 q 67 31 103 -7 q 31 138 31 68 l 31 1176 m 206 128 l 206 1185 q 171 1226 206 1226 q 136 1185 136 1226 l 136 128 q 171 85 136 85 q 196 97 186 85 q 206 128 206 108 z "},"Ø":{"ha":342,"x_min":31,"x_max":311,"o":"m 254 1299 q 311 1176 311 1265 l 311 138 q 275 31 311 68 q 171 -7 239 -7 q 142 -6 150 -7 l 128 -99 l 72 -99 l 89 13 q 31 138 31 46 l 31 1176 q 171 1318 31 1318 q 201 1315 182 1318 l 218 1431 l 274 1431 l 254 1299 m 206 128 l 206 1185 q 171 1226 206 1226 q 136 1185 136 1226 l 136 128 q 171 85 136 85 q 196 97 186 85 q 206 128 206 108 z "},"Ù":{"ha":342,"x_min":33,"x_max":308,"o":"m 161 1438 l 213 1339 l 161 1339 l 74 1438 l 161 1438 m 308 1313 l 308 119 q 272 26 308 58 q 171 -7 235 -7 q 70 25 107 -7 q 33 118 33 57 l 33 1313 l 138 1313 l 138 125 q 171 85 138 85 q 203 125 203 85 l 203 1313 l 308 1313 z "},"Ú":{"ha":342,"x_min":33,"x_max":308,"o":"m 183 1439 l 271 1439 l 183 1340 l 132 1340 l 183 1439 m 308 1313 l 308 119 q 272 26 308 58 q 171 -7 235 -7 q 70 25 107 -7 q 33 118 33 57 l 33 1313 l 138 1313 l 138 125 q 171 85 138 85 q 203 125 203 85 l 203 1313 l 308 1313 z "},"Û":{"ha":342,"x_min":33,"x_max":308,"o":"m 263 1340 l 215 1340 l 171 1403 l 128 1340 l 79 1340 l 131 1439 l 215 1439 l 263 1340 m 308 1313 l 308 119 q 272 26 308 58 q 171 -7 235 -7 q 70 25 107 -7 q 33 118 33 57 l 33 1313 l 138 1313 l 138 125 q 171 85 138 85 q 203 125 203 85 l 203 1313 l 308 1313 z "},"Ü":{"ha":342,"x_min":33,"x_max":308,"o":"m 79 1439 l 151 1439 l 151 1340 l 79 1340 l 79 1439 m 193 1439 l 264 1439 l 264 1340 l 193 1340 l 193 1439 m 308 1313 l 308 119 q 272 26 308 58 q 171 -7 235 -7 q 70 25 107 -7 q 33 118 33 57 l 33 1313 l 138 1313 l 138 125 q 171 85 138 85 q 203 125 203 85 l 203 1313 l 308 1313 z "},"Ý":{"ha":333,"x_min":4,"x_max":332,"o":"m 179 1439 l 267 1439 l 179 1340 l 128 1340 l 179 1439 m 174 657 l 186 835 l 218 1313 l 332 1313 l 219 326 l 219 0 l 115 0 l 115 328 l 4 1313 l 118 1313 l 153 835 l 164 657 l 174 657 z "},"Þ":{"ha":333,"x_min":35,"x_max":314,"o":"m 176 1139 q 277 1105 240 1139 q 314 1004 314 1071 l 314 476 q 276 374 314 410 q 176 339 239 339 l 138 339 l 138 0 l 35 0 l 35 1313 l 138 1313 l 138 1139 l 176 1139 m 208 482 l 208 997 q 168 1046 208 1046 l 138 1046 l 138 432 l 168 432 q 208 482 208 432 z "},"ß":{"ha":636,"x_min":24,"x_max":614,"o":"m 217 638 q 278 588 260 618 q 296 504 296 557 l 296 122 q 259 27 296 61 q 161 -7 222 -7 q 61 25 97 -7 q 25 119 25 57 l 25 497 l 126 497 l 126 118 q 160 83 126 83 q 193 117 193 83 l 193 485 q 151 554 193 532 l 99 576 q 24 700 24 610 l 24 1019 q 60 1112 24 1078 q 158 1146 96 1146 q 256 1114 222 1146 q 290 1028 290 1082 l 290 715 l 190 715 l 190 1019 q 158 1057 190 1057 q 126 1024 126 1057 l 126 719 q 164 661 126 679 l 217 638 m 535 638 q 596 588 578 618 q 614 504 614 557 l 614 122 q 577 27 614 61 q 479 -7 540 -7 q 379 25 415 -7 q 343 119 343 57 l 343 497 l 444 497 l 444 118 q 478 83 444 83 q 511 117 511 83 l 511 485 q 469 554 511 532 l 417 576 q 342 700 342 610 l 342 1019 q 378 1112 342 1078 q 476 1146 414 1146 q 574 1114 540 1146 q 608 1028 608 1082 l 608 715 l 508 715 l 508 1019 q 476 1057 508 1057 q 444 1024 444 1057 l 444 719 q 482 661 444 679 l 535 638 z "},"à":{"ha":321,"x_min":24,"x_max":292,"o":"m 154 1264 l 206 1165 l 154 1165 l 67 1264 l 154 1264 m 207 0 l 196 71 q 104 -7 165 -7 q 46 19 68 -7 q 24 86 24 44 l 24 483 q 115 643 24 603 l 190 675 l 190 1025 q 163 1058 190 1058 q 132 1025 132 1058 l 132 704 l 33 704 l 33 1026 q 66 1115 33 1083 q 163 1146 99 1146 q 292 1019 292 1146 l 292 0 l 207 0 m 192 575 l 160 563 q 125 483 125 544 l 125 121 q 151 83 125 83 q 178 98 167 83 q 190 136 190 113 l 192 575 z "},"á":{"ha":321,"x_min":24,"x_max":292,"o":"m 176 1265 l 264 1265 l 176 1167 l 125 1167 l 176 1265 m 207 0 l 196 71 q 104 -7 165 -7 q 46 19 68 -7 q 24 86 24 44 l 24 483 q 115 643 24 603 l 190 675 l 190 1025 q 163 1058 190 1058 q 132 1025 132 1058 l 132 704 l 33 704 l 33 1026 q 66 1115 33 1083 q 163 1146 99 1146 q 292 1019 292 1146 l 292 0 l 207 0 m 192 575 l 160 563 q 125 483 125 544 l 125 121 q 151 83 125 83 q 178 98 167 83 q 190 136 190 113 l 192 575 z "},"â":{"ha":321,"x_min":24,"x_max":292,"o":"m 256 1167 l 208 1167 l 164 1229 l 121 1167 l 72 1167 l 124 1265 l 208 1265 l 256 1167 m 207 0 l 196 71 q 104 -7 165 -7 q 46 19 68 -7 q 24 86 24 44 l 24 483 q 115 643 24 603 l 190 675 l 190 1025 q 163 1058 190 1058 q 132 1025 132 1058 l 132 704 l 33 704 l 33 1026 q 66 1115 33 1083 q 163 1146 99 1146 q 292 1019 292 1146 l 292 0 l 207 0 m 192 575 l 160 563 q 125 483 125 544 l 125 121 q 151 83 125 83 q 178 98 167 83 q 190 136 190 113 l 192 575 z "},"ã":{"ha":321,"x_min":24,"x_max":292,"o":"m 128 1217 q 114 1167 114 1217 l 64 1167 q 125 1265 64 1265 q 142 1263 135 1265 q 158 1256 150 1261 q 169 1247 165 1250 q 181 1235 172 1244 l 189 1225 q 204 1210 197 1210 q 218 1261 219 1210 l 268 1261 q 207 1163 268 1163 q 192 1165 199 1163 q 180 1169 185 1167 q 168 1176 175 1171 q 159 1184 161 1182 q 150 1194 157 1186 l 143 1203 q 128 1217 135 1217 m 163 1146 q 292 1019 292 1146 l 292 0 l 207 0 l 196 71 q 104 -7 165 -7 q 46 19 68 -7 q 24 86 24 44 l 24 483 q 115 643 24 603 l 190 675 l 190 1025 q 163 1058 190 1058 q 132 1025 132 1058 l 132 704 l 33 704 l 33 1026 q 66 1115 33 1083 q 163 1146 99 1146 m 190 136 l 192 575 l 160 563 q 125 483 125 544 l 125 121 q 151 83 125 83 q 178 98 167 83 q 190 136 190 113 z "},"ä":{"ha":321,"x_min":24,"x_max":292,"o":"m 72 1265 l 144 1265 l 144 1167 l 72 1167 l 72 1265 m 186 1265 l 257 1265 l 257 1167 l 186 1167 l 186 1265 m 207 0 l 196 71 q 104 -7 165 -7 q 46 19 68 -7 q 24 86 24 44 l 24 483 q 115 643 24 603 l 190 675 l 190 1025 q 163 1058 190 1058 q 132 1025 132 1058 l 132 704 l 33 704 l 33 1026 q 66 1115 33 1083 q 163 1146 99 1146 q 292 1019 292 1146 l 292 0 l 207 0 m 192 575 l 160 563 q 125 483 125 544 l 125 121 q 151 83 125 83 q 178 98 167 83 q 190 136 190 113 l 192 575 z "},"å":{"ha":321,"x_min":24,"x_max":292,"o":"m 168 1153 q 125 1169 142 1153 q 108 1210 108 1185 q 125 1250 108 1235 q 168 1265 142 1265 q 209 1250 193 1265 q 225 1210 225 1235 q 208 1169 225 1185 q 168 1153 192 1153 m 167 1185 q 185 1192 178 1185 q 192 1210 192 1200 q 185 1227 192 1219 q 167 1235 178 1235 q 142 1210 142 1235 q 167 1185 142 1185 m 207 0 l 196 71 q 104 -7 165 -7 q 46 19 68 -7 q 24 86 24 44 l 24 483 q 115 643 24 603 l 190 675 l 190 1025 q 163 1058 190 1058 q 132 1025 132 1058 l 132 704 l 33 704 l 33 1026 q 66 1115 33 1083 q 163 1146 99 1146 q 292 1019 292 1146 l 292 0 l 207 0 m 192 575 l 160 563 q 125 483 125 544 l 125 121 q 151 83 125 83 q 178 98 167 83 q 190 136 190 113 l 192 575 z "},"æ":{"ha":488,"x_min":24,"x_max":460,"o":"m 460 597 l 293 597 l 293 129 q 328 83 293 83 q 360 122 360 83 l 360 554 l 460 554 l 460 119 q 424 27 460 61 q 328 -7 389 -7 q 201 71 231 -7 q 103 -7 164 -7 q 46 19 68 -7 q 24 86 24 44 l 24 481 q 44 574 24 539 q 114 636 65 610 l 188 672 l 188 1025 q 158 1058 188 1058 q 131 1025 131 1058 l 131 704 l 32 704 l 32 1026 q 65 1114 32 1082 q 158 1146 99 1146 q 246 1124 211 1146 q 328 1146 276 1146 q 426 1110 392 1146 q 460 1010 460 1075 l 460 597 m 293 1014 l 293 683 l 360 683 l 360 1014 q 328 1057 360 1057 q 293 1014 293 1057 m 188 133 l 188 576 l 160 564 q 125 493 125 544 l 125 113 q 151 83 125 83 q 188 133 188 83 z "},"ç":{"ha":322,"x_min":28,"x_max":294,"o":"m 294 635 l 196 635 l 196 1011 q 164 1056 196 1056 q 129 1011 129 1056 l 129 129 q 164 83 129 83 q 196 129 196 83 l 196 568 l 294 568 l 294 124 q 168 -7 294 -4 l 143 -53 q 185 -28 161 -28 q 218 -69 218 -28 l 218 -87 q 201 -130 218 -115 q 156 -144 183 -144 q 93 -89 93 -144 l 93 -78 l 146 -78 l 146 -97 q 154 -110 146 -110 q 163 -97 163 -110 l 163 -78 q 147 -60 163 -60 l 97 -60 l 128 -4 q 28 133 28 15 l 28 1004 q 63 1110 28 1074 q 164 1146 99 1146 q 261 1113 228 1146 q 294 1017 294 1079 l 294 635 z "},"è":{"ha":324,"x_min":28,"x_max":296,"o":"m 153 1264 l 204 1165 l 153 1165 l 65 1264 l 153 1264 m 64 1110 q 82 1128 64 1110 q 164 1146 100 1146 q 262 1110 228 1146 q 296 1010 296 1075 l 296 597 l 129 597 l 129 129 q 164 83 129 83 q 196 122 196 83 l 196 554 l 296 554 l 296 119 q 260 27 296 61 q 164 -7 225 -7 q 63 29 99 -7 q 28 133 28 65 l 28 1004 q 64 1110 28 1074 m 164 1057 q 129 1014 129 1057 l 129 683 l 196 683 l 196 1014 q 164 1057 196 1057 z "},"é":{"ha":324,"x_min":28,"x_max":296,"o":"m 175 1265 l 263 1265 l 175 1167 l 124 1167 l 175 1265 m 64 1110 q 82 1128 64 1110 q 164 1146 100 1146 q 262 1110 228 1146 q 296 1010 296 1075 l 296 597 l 129 597 l 129 129 q 164 83 129 83 q 196 122 196 83 l 196 554 l 296 554 l 296 119 q 260 27 296 61 q 164 -7 225 -7 q 63 29 99 -7 q 28 133 28 65 l 28 1004 q 64 1110 28 1074 m 164 1057 q 129 1014 129 1057 l 129 683 l 196 683 l 196 1014 q 164 1057 196 1057 z "},"ê":{"ha":324,"x_min":28,"x_max":296,"o":"m 254 1167 l 207 1167 l 163 1229 l 119 1167 l 71 1167 l 122 1265 l 207 1265 l 254 1167 m 64 1110 q 82 1128 64 1110 q 164 1146 100 1146 q 262 1110 228 1146 q 296 1010 296 1075 l 296 597 l 129 597 l 129 129 q 164 83 129 83 q 196 122 196 83 l 196 554 l 296 554 l 296 119 q 260 27 296 61 q 164 -7 225 -7 q 63 29 99 -7 q 28 133 28 65 l 28 1004 q 64 1110 28 1074 m 164 1057 q 129 1014 129 1057 l 129 683 l 196 683 l 196 1014 q 164 1057 196 1057 z "},"ë":{"ha":324,"x_min":28,"x_max":296,"o":"m 71 1265 l 143 1265 l 143 1167 l 71 1167 l 71 1265 m 185 1265 l 256 1265 l 256 1167 l 185 1167 l 185 1265 m 64 1110 q 82 1128 64 1110 q 164 1146 100 1146 q 262 1110 228 1146 q 296 1010 296 1075 l 296 597 l 129 597 l 129 129 q 164 83 129 83 q 196 122 196 83 l 196 554 l 296 554 l 296 119 q 260 27 296 61 q 164 -7 225 -7 q 63 29 99 -7 q 28 133 28 65 l 28 1004 q 64 1110 28 1074 m 164 1057 q 129 1014 129 1057 l 129 683 l 196 683 l 196 1014 q 164 1057 196 1057 z "},"ì":{"ha":164,"x_min":-15,"x_max":133,"o":"m 72 1264 l 124 1165 l 72 1165 l -15 1264 l 72 1264 m 32 1139 l 133 1139 l 133 0 l 32 0 l 32 1139 z "},"í":{"ha":164,"x_min":32,"x_max":182,"o":"m 94 1265 l 182 1265 l 94 1167 l 43 1167 l 94 1265 m 32 1139 l 133 1139 l 133 0 l 32 0 l 32 1139 z "},"î":{"ha":164,"x_min":-10,"x_max":174,"o":"m 174 1167 l 126 1167 l 82 1229 l 39 1167 l -10 1167 l 42 1265 l 126 1265 l 174 1167 m 32 1139 l 133 1139 l 133 0 l 32 0 l 32 1139 z "},"ï":{"ha":164,"x_min":-10,"x_max":175,"o":"m -10 1265 l 63 1265 l 63 1167 l -10 1167 l -10 1265 m 104 1265 l 175 1265 l 175 1167 l 104 1167 l 104 1265 m 32 1139 l 133 1139 l 133 0 l 32 0 l 32 1139 z "},"ð":{"ha":322,"x_min":28,"x_max":296,"o":"m 257 1231 q 296 1013 296 1149 l 293 126 q 258 30 293 64 q 161 -4 222 -4 q 28 124 28 -4 l 28 1035 q 107 1144 28 1144 q 194 1074 161 1144 q 168 1200 194 1139 l 114 1182 l 96 1231 l 142 1247 q 69 1319 113 1292 l 186 1319 q 229 1276 214 1297 l 267 1290 l 285 1240 l 257 1231 m 194 125 l 194 1014 q 160 1057 194 1057 q 129 1021 129 1057 l 129 118 q 160 82 129 82 q 184 93 174 82 q 194 125 194 104 z "},"ñ":{"ha":326,"x_min":32,"x_max":297,"o":"m 126 1217 q 113 1167 113 1217 l 63 1167 q 124 1265 63 1265 q 141 1263 133 1265 q 156 1256 149 1261 q 167 1247 164 1250 q 179 1235 171 1244 l 188 1225 q 203 1210 196 1210 q 217 1261 218 1210 l 267 1261 q 206 1163 267 1163 q 190 1165 197 1163 q 178 1169 183 1167 q 167 1176 174 1171 q 158 1184 160 1182 q 149 1194 156 1186 l 142 1203 q 126 1217 133 1217 m 226 1146 q 297 1056 297 1146 l 297 0 l 196 0 l 196 1024 q 169 1054 196 1054 q 144 1042 154 1054 q 133 1011 133 1031 l 133 0 l 32 0 l 32 1139 l 118 1139 l 129 1065 q 226 1146 165 1146 z "},"ò":{"ha":325,"x_min":28,"x_max":297,"o":"m 153 1264 l 204 1165 l 153 1165 l 65 1264 l 153 1264 m 164 1146 q 262 1110 226 1146 q 297 1006 297 1074 l 297 135 q 262 29 297 65 q 163 -7 226 -7 q 63 29 99 -7 q 28 135 28 65 l 28 1006 q 64 1110 28 1074 q 164 1146 100 1146 m 196 129 l 196 1011 q 164 1056 196 1056 q 129 1011 129 1056 l 129 129 q 163 83 129 83 q 196 129 196 83 z "},"ó":{"ha":325,"x_min":28,"x_max":297,"o":"m 175 1265 l 263 1265 l 175 1167 l 124 1167 l 175 1265 m 164 1146 q 262 1110 226 1146 q 297 1006 297 1074 l 297 135 q 262 29 297 65 q 163 -7 226 -7 q 63 29 99 -7 q 28 135 28 65 l 28 1006 q 64 1110 28 1074 q 164 1146 100 1146 m 196 129 l 196 1011 q 164 1056 196 1056 q 129 1011 129 1056 l 129 129 q 163 83 129 83 q 196 129 196 83 z "},"ô":{"ha":325,"x_min":28,"x_max":297,"o":"m 254 1167 l 207 1167 l 163 1229 l 119 1167 l 71 1167 l 122 1265 l 207 1265 l 254 1167 m 164 1146 q 262 1110 226 1146 q 297 1006 297 1074 l 297 135 q 262 29 297 65 q 163 -7 226 -7 q 63 29 99 -7 q 28 135 28 65 l 28 1006 q 64 1110 28 1074 q 164 1146 100 1146 m 196 129 l 196 1011 q 164 1056 196 1056 q 129 1011 129 1056 l 129 129 q 163 83 129 83 q 196 129 196 83 z "},"õ":{"ha":325,"x_min":28,"x_max":297,"o":"m 126 1217 q 113 1167 113 1217 l 63 1167 q 124 1265 63 1265 q 141 1263 133 1265 q 156 1256 149 1261 q 167 1247 164 1250 q 179 1235 171 1244 l 188 1225 q 203 1210 196 1210 q 217 1261 218 1210 l 267 1261 q 206 1163 267 1163 q 190 1165 197 1163 q 178 1169 183 1167 q 167 1176 174 1171 q 158 1184 160 1182 q 149 1194 156 1186 l 142 1203 q 126 1217 133 1217 m 164 1146 q 262 1110 226 1146 q 297 1006 297 1074 l 297 135 q 262 29 297 65 q 163 -7 226 -7 q 63 29 99 -7 q 28 135 28 65 l 28 1006 q 64 1110 28 1074 q 164 1146 100 1146 m 196 129 l 196 1011 q 164 1056 196 1056 q 129 1011 129 1056 l 129 129 q 163 83 129 83 q 196 129 196 83 z "},"ö":{"ha":325,"x_min":28,"x_max":297,"o":"m 71 1265 l 143 1265 l 143 1167 l 71 1167 l 71 1265 m 185 1265 l 256 1265 l 256 1167 l 185 1167 l 185 1265 m 164 1146 q 262 1110 226 1146 q 297 1006 297 1074 l 297 135 q 262 29 297 65 q 163 -7 226 -7 q 63 29 99 -7 q 28 135 28 65 l 28 1006 q 64 1110 28 1074 q 164 1146 100 1146 m 196 129 l 196 1011 q 164 1056 196 1056 q 129 1011 129 1056 l 129 129 q 163 83 129 83 q 196 129 196 83 z "},"ø":{"ha":325,"x_min":28,"x_max":297,"o":"m 243 1125 q 297 1006 297 1090 l 297 135 q 262 29 297 65 q 163 -7 226 -7 q 143 -6 149 -7 l 129 -100 l 74 -100 l 89 10 q 28 135 28 43 l 28 1006 q 64 1110 28 1074 q 164 1146 100 1146 q 192 1144 183 1146 l 208 1261 l 264 1261 l 243 1125 m 196 129 l 196 1011 q 164 1056 196 1056 q 129 1011 129 1056 l 129 129 q 163 83 129 83 q 196 129 196 83 z "},"ù":{"ha":326,"x_min":29,"x_max":294,"o":"m 153 1264 l 204 1165 l 153 1165 l 65 1264 l 153 1264 m 193 1139 l 294 1139 l 294 0 l 207 0 l 196 74 q 99 -6 163 -7 q 29 86 29 -6 l 29 1139 l 131 1139 l 131 115 q 157 85 131 85 q 182 97 171 85 q 193 128 193 108 l 193 1139 z "},"ú":{"ha":326,"x_min":29,"x_max":294,"o":"m 175 1265 l 263 1265 l 175 1167 l 124 1167 l 175 1265 m 193 1139 l 294 1139 l 294 0 l 207 0 l 196 74 q 99 -6 163 -7 q 29 86 29 -6 l 29 1139 l 131 1139 l 131 115 q 157 85 131 85 q 182 97 171 85 q 193 128 193 108 l 193 1139 z "},"û":{"ha":326,"x_min":29,"x_max":294,"o":"m 254 1167 l 207 1167 l 163 1229 l 119 1167 l 71 1167 l 122 1265 l 207 1265 l 254 1167 m 193 1139 l 294 1139 l 294 0 l 207 0 l 196 74 q 99 -6 163 -7 q 29 86 29 -6 l 29 1139 l 131 1139 l 131 115 q 157 85 131 85 q 182 97 171 85 q 193 128 193 108 l 193 1139 z "},"ü":{"ha":326,"x_min":29,"x_max":294,"o":"m 71 1265 l 143 1265 l 143 1167 l 71 1167 l 71 1265 m 185 1265 l 256 1265 l 256 1167 l 185 1167 l 185 1265 m 193 1139 l 294 1139 l 294 0 l 207 0 l 196 74 q 99 -6 163 -7 q 29 86 29 -6 l 29 1139 l 131 1139 l 131 115 q 157 85 131 85 q 182 97 171 85 q 193 128 193 108 l 193 1139 z "},"ý":{"ha":310,"x_min":6,"x_max":299,"o":"m 161 1265 l 249 1265 l 161 1167 l 110 1167 l 161 1265 m 161 247 l 171 488 l 193 1139 l 299 1139 l 218 -21 q 74 -147 201 -147 l 6 -147 l 6 -58 l 54 -58 q 96 -29 92 -58 l 11 1139 l 115 1139 l 142 488 l 151 247 l 161 247 z "},"þ":{"ha":325,"x_min":32,"x_max":297,"o":"m 218 -6 q 133 67 167 -6 l 133 -139 l 32 -139 l 32 1319 l 133 1319 l 133 1069 q 218 1146 157 1146 q 297 1046 297 1143 l 297 93 q 276 19 297 44 q 218 -6 254 -6 m 167 83 q 196 124 196 83 l 196 1015 q 167 1056 196 1056 q 133 1008 133 1056 l 133 132 q 167 83 133 83 z "},"ÿ":{"ha":310,"x_min":6,"x_max":299,"o":"m 57 1265 l 129 1265 l 129 1167 l 57 1167 l 57 1265 m 171 1265 l 242 1265 l 242 1167 l 171 1167 l 171 1265 m 161 247 l 171 488 l 193 1139 l 299 1139 l 218 -21 q 74 -147 201 -147 l 6 -147 l 6 -58 l 54 -58 q 96 -29 92 -58 l 11 1139 l 115 1139 l 142 488 l 151 247 l 161 247 z "},"Ā":{"ha":325,"x_min":6,"x_max":321,"o":"m 260 1400 l 260 1349 l 63 1349 l 63 1400 l 260 1400 m 213 0 l 200 342 l 124 342 l 111 0 l 6 0 l 81 1313 l 243 1313 l 321 0 l 213 0 m 128 435 l 196 435 l 175 997 l 167 1193 l 157 1193 l 149 997 l 128 435 z "},"ā":{"ha":321,"x_min":24,"x_max":292,"o":"m 64 1226 l 261 1226 l 261 1175 l 64 1175 l 64 1226 m 207 0 l 196 71 q 104 -7 165 -7 q 46 19 68 -7 q 24 86 24 44 l 24 483 q 115 643 24 603 l 190 675 l 190 1025 q 163 1058 190 1058 q 132 1025 132 1058 l 132 704 l 33 704 l 33 1026 q 66 1115 33 1083 q 163 1146 99 1146 q 292 1019 292 1146 l 292 0 l 207 0 m 192 575 l 160 563 q 125 483 125 544 l 125 121 q 151 83 125 83 q 178 98 167 83 q 190 136 190 113 l 192 575 z "},"Ă":{"ha":325,"x_min":6,"x_max":321,"o":"m 163 1340 q 85 1368 113 1340 q 56 1440 58 1396 l 114 1440 q 163 1386 119 1386 q 213 1440 207 1386 l 269 1440 q 163 1340 263 1340 m 213 0 l 200 342 l 124 342 l 111 0 l 6 0 l 81 1313 l 243 1313 l 321 0 l 213 0 m 128 435 l 196 435 l 175 997 l 167 1193 l 157 1193 l 149 997 l 128 435 z "},"ă":{"ha":321,"x_min":24,"x_max":292,"o":"m 271 1267 q 164 1167 264 1167 q 87 1194 114 1167 q 57 1267 60 1222 l 115 1267 q 164 1213 121 1213 q 214 1267 208 1213 l 271 1267 m 207 0 l 196 71 q 104 -7 165 -7 q 46 19 68 -7 q 24 86 24 44 l 24 483 q 115 643 24 603 l 190 675 l 190 1025 q 163 1058 190 1058 q 132 1025 132 1058 l 132 704 l 33 704 l 33 1026 q 66 1115 33 1083 q 163 1146 99 1146 q 292 1019 292 1146 l 292 0 l 207 0 m 192 575 l 160 563 q 125 483 125 544 l 125 121 q 151 83 125 83 q 178 98 167 83 q 190 136 190 113 l 192 575 z "},"Ą":{"ha":325,"x_min":6,"x_max":321,"o":"m 250 -47 q 272 -71 250 -71 q 317 -58 294 -71 l 317 -107 q 239 -132 286 -132 q 192 -115 211 -132 q 174 -71 174 -99 q 219 0 174 -24 l 213 0 l 200 342 l 124 342 l 111 0 l 6 0 l 81 1313 l 243 1313 l 321 0 l 294 0 q 263 -16 276 -4 q 250 -47 250 -28 m 128 435 l 196 435 l 175 997 l 167 1193 l 157 1193 l 149 997 l 128 435 z "},"ą":{"ha":321,"x_min":24,"x_max":292,"o":"m 254 0 q 223 -16 236 -4 q 210 -47 210 -28 q 232 -71 210 -71 q 276 -58 254 -71 l 276 -107 q 199 -132 246 -132 q 152 -115 171 -132 q 133 -71 133 -99 q 153 -21 133 -44 q 206 10 174 3 l 196 71 q 104 -7 165 -7 q 46 19 68 -7 q 24 86 24 44 l 24 483 q 115 643 24 603 l 190 675 l 190 1025 q 163 1058 190 1058 q 132 1025 132 1058 l 132 704 l 33 704 l 33 1026 q 66 1115 33 1083 q 163 1146 99 1146 q 292 1019 292 1146 l 292 0 l 254 0 m 190 136 l 192 575 l 160 563 q 125 483 125 544 l 125 121 q 151 83 125 83 q 178 98 167 83 q 190 136 190 113 z "},"Ć":{"ha":338,"x_min":31,"x_max":308,"o":"m 182 1440 l 269 1440 l 182 1342 l 131 1342 l 182 1440 m 308 635 l 308 128 q 171 -7 308 -7 q 67 31 103 -7 q 31 138 31 68 l 31 1176 q 67 1281 31 1244 q 171 1318 103 1318 q 308 1186 308 1318 l 308 740 l 204 740 l 204 1185 q 171 1226 204 1226 q 136 1185 136 1226 l 136 128 q 171 85 136 85 q 204 128 204 85 l 204 635 l 308 635 z "},"ć":{"ha":322,"x_min":28,"x_max":294,"o":"m 178 1265 l 265 1265 l 178 1167 l 126 1167 l 178 1265 m 294 568 l 294 124 q 164 -7 294 -7 q 64 29 100 -7 q 28 133 28 65 l 28 1004 q 63 1110 28 1074 q 164 1146 99 1146 q 261 1113 228 1146 q 294 1017 294 1079 l 294 635 l 196 635 l 196 1011 q 164 1056 196 1056 q 129 1011 129 1056 l 129 129 q 164 83 129 83 q 196 129 196 83 l 196 568 l 294 568 z "},"Ċ":{"ha":338,"x_min":31,"x_max":308,"o":"m 133 1440 l 206 1440 l 206 1342 l 133 1342 l 133 1440 m 308 635 l 308 128 q 171 -7 308 -7 q 67 31 103 -7 q 31 138 31 68 l 31 1176 q 67 1281 31 1244 q 171 1318 103 1318 q 308 1186 308 1318 l 308 740 l 204 740 l 204 1185 q 171 1226 204 1226 q 136 1185 136 1226 l 136 128 q 171 85 136 85 q 204 128 204 85 l 204 635 l 308 635 z "},"ċ":{"ha":322,"x_min":28,"x_max":294,"o":"m 129 1265 l 201 1265 l 201 1167 l 129 1167 l 129 1265 m 294 568 l 294 124 q 164 -7 294 -7 q 64 29 100 -7 q 28 133 28 65 l 28 1004 q 63 1110 28 1074 q 164 1146 99 1146 q 261 1113 228 1146 q 294 1017 294 1079 l 294 635 l 196 635 l 196 1011 q 164 1056 196 1056 q 129 1011 129 1056 l 129 129 q 164 83 129 83 q 196 129 196 83 l 196 568 l 294 568 z "},"Č":{"ha":338,"x_min":31,"x_max":308,"o":"m 261 1442 l 214 1343 l 129 1343 l 78 1442 l 126 1442 l 169 1379 l 214 1442 l 261 1442 m 308 635 l 308 128 q 171 -7 308 -7 q 67 31 103 -7 q 31 138 31 68 l 31 1176 q 67 1281 31 1244 q 171 1318 103 1318 q 308 1186 308 1318 l 308 740 l 204 740 l 204 1185 q 171 1226 204 1226 q 136 1185 136 1226 l 136 128 q 171 85 136 85 q 204 128 204 85 l 204 635 l 308 635 z "},"č":{"ha":322,"x_min":28,"x_max":294,"o":"m 257 1267 l 210 1168 l 125 1168 l 74 1267 l 122 1267 l 165 1204 l 210 1267 l 257 1267 m 294 568 l 294 124 q 164 -7 294 -7 q 64 29 100 -7 q 28 133 28 65 l 28 1004 q 63 1110 28 1074 q 164 1146 99 1146 q 261 1113 228 1146 q 294 1017 294 1079 l 294 635 l 196 635 l 196 1011 q 164 1056 196 1056 q 129 1011 129 1056 l 129 129 q 164 83 129 83 q 196 129 196 83 l 196 568 l 294 568 z "},"Ď":{"ha":342,"x_min":35,"x_max":311,"o":"m 264 1440 l 217 1342 l 132 1342 l 81 1440 l 129 1440 l 172 1378 l 217 1440 l 264 1440 m 186 1313 q 278 1277 244 1313 q 311 1178 311 1242 l 311 136 q 278 35 311 71 q 186 0 244 0 l 35 0 l 35 1313 l 186 1313 m 206 132 l 206 1182 q 174 1219 206 1219 l 138 1219 l 138 93 l 174 93 q 206 132 206 93 z "},"ď":{"ha":411,"x_min":28,"x_max":404,"o":"m 192 1072 l 192 1319 l 293 1319 l 293 0 l 193 0 l 193 69 q 106 -6 163 -6 q 49 19 69 -6 q 28 93 28 44 l 28 1046 q 49 1119 28 1094 q 106 1144 69 1144 q 192 1072 158 1144 m 335 1319 l 404 1319 l 404 1135 q 347 1072 404 1072 l 335 1072 l 335 1110 l 343 1110 q 365 1138 365 1110 l 365 1199 l 335 1199 l 335 1319 m 192 132 l 192 1007 q 158 1056 192 1056 q 129 1015 129 1056 l 129 124 q 158 83 129 83 q 192 132 192 83 z "},"Đ":{"ha":342,"x_min":1,"x_max":311,"o":"m 186 1313 q 278 1277 244 1313 q 311 1178 311 1242 l 311 136 q 278 35 311 71 q 186 0 244 0 l 35 0 l 35 632 l 1 632 l 1 683 l 35 683 l 35 1313 l 186 1313 m 206 132 l 206 1182 q 174 1219 206 1219 l 138 1219 l 138 683 l 179 683 l 179 632 l 138 632 l 138 93 l 174 93 q 206 132 206 93 z "},"đ":{"ha":325,"x_min":28,"x_max":318,"o":"m 318 1254 l 318 1203 l 293 1203 l 293 0 l 193 0 l 193 69 q 106 -6 163 -6 q 49 19 69 -6 q 28 93 28 44 l 28 1046 q 49 1119 28 1094 q 106 1144 69 1144 q 192 1072 158 1144 l 192 1203 l 158 1203 l 158 1254 l 192 1254 l 192 1319 l 293 1319 l 293 1254 l 318 1254 m 192 132 l 192 1007 q 158 1056 192 1056 q 129 1015 129 1056 l 129 124 q 158 83 129 83 q 192 132 192 83 z "},"Ē":{"ha":254,"x_min":35,"x_max":243,"o":"m 46 1400 l 243 1400 l 243 1349 l 46 1349 l 46 1400 m 139 93 l 240 93 l 240 0 l 35 0 l 35 1313 l 238 1313 l 238 1219 l 139 1219 l 139 728 l 232 728 l 232 636 l 139 636 l 139 93 z "},"ē":{"ha":324,"x_min":28,"x_max":296,"o":"m 63 1226 l 260 1226 l 260 1175 l 63 1175 l 63 1226 m 64 1110 q 82 1128 64 1110 q 164 1146 100 1146 q 262 1110 228 1146 q 296 1010 296 1075 l 296 597 l 129 597 l 129 129 q 164 83 129 83 q 196 122 196 83 l 196 554 l 296 554 l 296 119 q 260 27 296 61 q 164 -7 225 -7 q 63 29 99 -7 q 28 133 28 65 l 28 1004 q 64 1110 28 1074 m 164 1057 q 129 1014 129 1057 l 129 683 l 196 683 l 196 1014 q 164 1057 196 1057 z "},"Ė":{"ha":254,"x_min":35,"x_max":240,"o":"m 110 1439 l 182 1439 l 182 1340 l 110 1340 l 110 1439 m 139 93 l 240 93 l 240 0 l 35 0 l 35 1313 l 238 1313 l 238 1219 l 139 1219 l 139 728 l 232 728 l 232 636 l 139 636 l 139 93 z "},"ė":{"ha":324,"x_min":28,"x_max":296,"o":"m 126 1265 l 199 1265 l 199 1167 l 126 1167 l 126 1265 m 64 1110 q 82 1128 64 1110 q 164 1146 100 1146 q 262 1110 228 1146 q 296 1010 296 1075 l 296 597 l 129 597 l 129 129 q 164 83 129 83 q 196 122 196 83 l 196 554 l 296 554 l 296 119 q 260 27 296 61 q 164 -7 225 -7 q 63 29 99 -7 q 28 133 28 65 l 28 1004 q 64 1110 28 1074 m 164 1057 q 129 1014 129 1057 l 129 683 l 196 683 l 196 1014 q 164 1057 196 1057 z "},"Ę":{"ha":254,"x_min":35,"x_max":250,"o":"m 183 -47 q 206 -71 183 -71 q 250 -58 228 -71 l 250 -107 q 172 -132 219 -132 q 126 -115 144 -132 q 107 -71 107 -99 q 153 0 107 -24 l 35 0 l 35 1313 l 238 1313 l 238 1219 l 139 1219 l 139 728 l 232 728 l 232 636 l 139 636 l 139 93 l 240 93 l 240 0 l 228 0 q 197 -16 210 -4 q 183 -47 183 -28 z "},"ę":{"ha":324,"x_min":28,"x_max":296,"o":"m 296 597 l 129 597 l 129 129 q 164 83 129 83 q 196 122 196 83 l 196 554 l 296 554 l 296 119 q 267 35 296 68 q 188 -6 238 1 q 164 -44 164 -19 q 186 -68 164 -68 q 231 -56 208 -68 l 231 -104 q 153 -129 200 -129 q 106 -112 125 -129 q 88 -68 88 -96 q 125 -3 88 -29 q 28 133 28 17 l 28 1004 q 64 1110 28 1074 q 164 1146 100 1146 q 262 1110 228 1146 q 296 1010 296 1075 l 296 597 m 129 1014 l 129 683 l 196 683 l 196 1014 q 164 1057 196 1057 q 129 1014 129 1057 z "},"Ě":{"ha":254,"x_min":35,"x_max":240,"o":"m 238 1440 l 190 1342 l 106 1342 l 54 1440 l 103 1440 l 146 1378 l 190 1440 l 238 1440 m 139 93 l 240 93 l 240 0 l 35 0 l 35 1313 l 238 1313 l 238 1219 l 139 1219 l 139 728 l 232 728 l 232 636 l 139 636 l 139 93 z "},"ě":{"ha":324,"x_min":28,"x_max":296,"o":"m 254 1267 l 207 1168 l 122 1168 l 71 1267 l 119 1267 l 163 1204 l 207 1267 l 254 1267 m 64 1110 q 82 1128 64 1110 q 164 1146 100 1146 q 262 1110 228 1146 q 296 1010 296 1075 l 296 597 l 129 597 l 129 129 q 164 83 129 83 q 196 122 196 83 l 196 554 l 296 554 l 296 119 q 260 27 296 61 q 164 -7 225 -7 q 63 29 99 -7 q 28 133 28 65 l 28 1004 q 64 1110 28 1074 m 164 1057 q 129 1014 129 1057 l 129 683 l 196 683 l 196 1014 q 164 1057 196 1057 z "},"Ğ":{"ha":339,"x_min":31,"x_max":310,"o":"m 278 1442 q 171 1342 271 1342 q 94 1369 121 1342 q 64 1442 67 1397 l 122 1442 q 171 1388 128 1388 q 221 1442 215 1388 l 278 1442 m 210 58 q 126 -7 189 -7 q 56 27 82 -6 q 31 121 31 60 l 31 1176 q 67 1281 31 1244 q 172 1318 103 1318 q 310 1188 310 1318 l 310 760 l 206 760 l 206 1185 q 171 1226 206 1226 q 136 1185 136 1226 l 136 126 q 171 85 136 85 q 196 97 186 85 q 206 126 206 108 l 206 603 l 168 603 l 168 694 l 308 694 l 308 0 l 235 0 l 217 58 l 210 58 z "},"ğ":{"ha":326,"x_min":26,"x_max":294,"o":"m 269 1267 q 163 1167 263 1167 q 85 1194 113 1167 q 56 1267 58 1222 l 114 1267 q 163 1213 119 1213 q 213 1267 207 1213 l 269 1267 m 207 1139 l 294 1139 l 294 -26 q 258 -117 293 -87 q 171 -147 224 -147 l 47 -147 l 47 -58 l 143 -58 q 193 -10 193 -58 l 193 93 q 156 35 176 54 q 106 15 136 15 q 48 40 69 15 q 26 113 26 65 l 26 1049 q 48 1119 26 1094 q 106 1144 69 1144 q 196 1069 158 1144 l 207 1139 m 158 1056 q 129 1017 129 1056 l 129 144 q 158 106 129 106 q 192 153 192 106 l 192 1007 q 158 1056 192 1056 z "},"Ġ":{"ha":339,"x_min":31,"x_max":310,"o":"m 135 1440 l 207 1440 l 207 1342 l 135 1342 l 135 1440 m 210 58 q 126 -7 189 -7 q 56 27 82 -6 q 31 121 31 60 l 31 1176 q 67 1281 31 1244 q 172 1318 103 1318 q 310 1188 310 1318 l 310 760 l 206 760 l 206 1185 q 171 1226 206 1226 q 136 1185 136 1226 l 136 126 q 171 85 136 85 q 196 97 186 85 q 206 126 206 108 l 206 603 l 168 603 l 168 694 l 308 694 l 308 0 l 235 0 l 217 58 l 210 58 z "},"ġ":{"ha":326,"x_min":26,"x_max":294,"o":"m 126 1265 l 199 1265 l 199 1167 l 126 1167 l 126 1265 m 207 1139 l 294 1139 l 294 -26 q 258 -117 293 -87 q 171 -147 224 -147 l 47 -147 l 47 -58 l 143 -58 q 193 -10 193 -58 l 193 93 q 156 35 176 54 q 106 15 136 15 q 48 40 69 15 q 26 113 26 65 l 26 1049 q 48 1119 26 1094 q 106 1144 69 1144 q 196 1069 158 1144 l 207 1139 m 158 1056 q 129 1017 129 1056 l 129 144 q 158 106 129 106 q 192 153 192 106 l 192 1007 q 158 1056 192 1056 z "},"Ģ":{"ha":339,"x_min":31,"x_max":310,"o":"m 310 760 l 206 760 l 206 1185 q 171 1226 206 1226 q 136 1185 136 1226 l 136 126 q 171 85 136 85 q 196 97 186 85 q 206 126 206 108 l 206 603 l 168 603 l 168 694 l 308 694 l 308 0 l 235 0 l 217 58 l 210 58 q 126 -7 189 -7 q 56 27 82 -6 q 31 121 31 60 l 31 1176 q 67 1281 31 1244 q 172 1318 103 1318 q 310 1188 310 1318 l 310 760 m 129 -69 l 129 -19 l 226 -19 l 226 -82 q 163 -139 226 -139 l 129 -139 l 129 -104 l 156 -104 q 178 -85 178 -104 l 178 -69 l 129 -69 z "},"ģ":{"ha":326,"x_min":26,"x_max":294,"o":"m 207 1139 l 294 1139 l 294 -26 q 258 -117 293 -87 q 171 -147 224 -147 l 47 -147 l 47 -58 l 143 -58 q 193 -10 193 -58 l 193 93 q 156 35 176 54 q 106 15 136 15 q 48 40 69 15 q 26 113 26 65 l 26 1049 q 48 1119 26 1094 q 106 1144 69 1144 q 196 1069 158 1144 l 207 1139 m 192 153 l 192 1007 q 158 1056 192 1056 q 129 1017 129 1056 l 129 144 q 158 106 129 106 q 192 153 192 106 m 118 -212 l 118 -162 l 215 -162 l 215 -225 q 151 -282 215 -282 l 118 -282 l 118 -247 l 144 -247 q 167 -228 167 -247 l 167 -212 l 118 -212 z "},"Ħ":{"ha":339,"x_min":4,"x_max":335,"o":"m 335 1063 l 335 1011 l 310 1011 l 310 0 l 204 0 l 204 635 l 139 635 l 139 0 l 35 0 l 35 1011 l 4 1011 l 4 1063 l 35 1063 l 35 1313 l 139 1313 l 139 1063 l 204 1063 l 204 1313 l 310 1313 l 310 1063 l 335 1063 m 204 728 l 204 1011 l 139 1011 l 139 728 l 204 728 z "},"ħ":{"ha":324,"x_min":7,"x_max":297,"o":"m 226 1146 q 297 1056 297 1146 l 297 0 l 196 0 l 196 1024 q 169 1054 196 1054 q 144 1042 154 1054 q 133 1011 133 1031 l 133 0 l 32 0 l 32 1203 l 7 1203 l 7 1254 l 32 1254 l 32 1319 l 133 1319 l 133 1254 l 167 1254 l 167 1203 l 133 1203 l 133 1065 q 226 1146 167 1146 z "},"Ī":{"ha":172,"x_min":-14,"x_max":183,"o":"m -14 1400 l 183 1400 l 183 1349 l -14 1349 l -14 1400 m 35 1313 l 138 1313 l 138 0 l 35 0 l 35 1313 z "},"ī":{"ha":164,"x_min":-18,"x_max":179,"o":"m -18 1226 l 179 1226 l 179 1175 l -18 1175 l -18 1226 m 32 1139 l 133 1139 l 133 0 l 32 0 l 32 1139 z "},"Į":{"ha":172,"x_min":3,"x_max":146,"o":"m 79 -47 q 101 -71 79 -71 q 146 -58 124 -71 l 146 -107 q 68 -132 115 -132 q 22 -115 40 -132 q 3 -71 3 -99 q 49 0 3 -24 l 35 0 l 35 1313 l 138 1313 l 138 0 l 124 0 q 92 -16 106 -4 q 79 -47 79 -28 z "},"į":{"ha":164,"x_min":-3,"x_max":140,"o":"m 133 1319 l 133 1176 l 32 1176 l 32 1319 l 133 1319 m 74 -46 q 96 -69 74 -69 q 140 -57 118 -69 l 140 -106 q 63 -131 110 -131 q 16 -114 35 -131 q -3 -69 -3 -97 q 40 0 -3 -25 l 32 0 l 32 1139 l 133 1139 l 133 0 l 113 0 q 74 -46 74 -11 z "},"İ":{"ha":172,"x_min":35,"x_max":138,"o":"m 50 1439 l 122 1439 l 122 1340 l 50 1340 l 50 1439 m 35 1313 l 138 1313 l 138 0 l 35 0 l 35 1313 z "},"ı":{"ha":164,"x_min":32,"x_max":133,"o":"m 32 1139 l 133 1139 l 133 0 l 32 0 l 32 1139 z "},"Ķ":{"ha":343,"x_min":35,"x_max":344,"o":"m 138 624 l 139 0 l 35 0 l 35 1313 l 139 1313 l 139 731 l 146 731 l 226 1313 l 333 1313 l 236 683 l 344 0 l 228 0 l 147 624 l 138 624 m 133 -68 l 133 -18 l 231 -18 l 231 -81 q 167 -137 231 -137 l 133 -137 l 133 -103 l 160 -103 q 182 -83 182 -103 l 182 -68 l 133 -68 z "},"ķ":{"ha":324,"x_min":32,"x_max":318,"o":"m 133 540 l 133 0 l 32 0 l 32 1319 l 133 1319 l 133 657 l 142 657 l 206 1139 l 311 1139 l 231 606 l 318 0 l 208 0 l 143 540 l 133 540 m 119 -68 l 119 -18 l 217 -18 l 217 -81 q 153 -137 217 -137 l 119 -137 l 119 -103 l 146 -103 q 168 -83 168 -103 l 168 -68 l 119 -68 z "},"Ĺ":{"ha":235,"x_min":35,"x_max":236,"o":"m 142 1439 l 229 1439 l 142 1340 l 90 1340 l 142 1439 m 138 93 l 236 93 l 236 0 l 35 0 l 35 1313 l 138 1313 l 138 93 z "},"ĺ":{"ha":164,"x_min":32,"x_max":182,"o":"m 94 1439 l 182 1439 l 94 1340 l 43 1340 l 94 1439 m 32 1319 l 133 1319 l 133 0 l 32 0 l 32 1319 z "},"Ļ":{"ha":235,"x_min":35,"x_max":236,"o":"m 138 93 l 236 93 l 236 0 l 35 0 l 35 1313 l 138 1313 l 138 93 m 86 -68 l 86 -18 l 183 -18 l 183 -81 q 119 -137 183 -137 l 86 -137 l 86 -103 l 113 -103 q 135 -83 135 -103 l 135 -68 l 86 -68 z "},"ļ":{"ha":164,"x_min":32,"x_max":136,"o":"m 133 1319 l 133 0 l 32 0 l 32 1319 l 133 1319 m 39 -18 l 136 -18 l 136 -81 q 72 -137 136 -137 l 39 -137 l 39 -103 l 65 -103 q 88 -83 88 -103 l 88 -68 l 39 -68 l 39 -18 z "},"Ľ":{"ha":281,"x_min":35,"x_max":264,"o":"m 138 1313 l 138 93 l 236 93 l 236 0 l 35 0 l 35 1313 l 138 1313 m 193 1313 l 264 1313 l 264 1078 q 207 1014 264 1014 l 193 1014 l 193 1054 l 203 1054 q 225 1081 225 1054 l 225 1157 l 193 1157 l 193 1313 z "},"ľ":{"ha":164,"x_min":-10,"x_max":174,"o":"m 174 1440 l 126 1342 l 42 1342 l -10 1440 l 39 1440 l 82 1378 l 126 1440 l 174 1440 m 32 1319 l 133 1319 l 133 0 l 32 0 l 32 1319 z "},"Ł":{"ha":235,"x_min":-3,"x_max":236,"o":"m 138 93 l 236 93 l 236 0 l 35 0 l 35 576 l -3 547 l -3 629 l 35 658 l 35 1313 l 138 1313 l 138 740 l 186 779 l 186 696 l 138 657 l 138 93 z "},"ł":{"ha":164,"x_min":-12,"x_max":176,"o":"m 176 817 l 176 733 l 133 700 l 133 0 l 32 0 l 32 619 l -12 585 l -12 667 l 32 701 l 32 1319 l 133 1319 l 133 782 l 176 817 z "},"Ń":{"ha":346,"x_min":35,"x_max":313,"o":"m 192 1439 l 279 1439 l 192 1340 l 140 1340 l 192 1439 m 235 508 l 219 951 l 219 1313 l 313 1313 l 313 0 l 214 0 l 122 850 l 114 850 l 128 404 l 128 0 l 35 0 l 35 1313 l 138 1313 l 226 508 l 235 508 z "},"ń":{"ha":326,"x_min":32,"x_max":297,"o":"m 175 1265 l 263 1265 l 175 1167 l 124 1167 l 175 1265 m 226 1146 q 297 1056 297 1146 l 297 0 l 196 0 l 196 1024 q 169 1054 196 1054 q 144 1042 154 1054 q 133 1011 133 1031 l 133 0 l 32 0 l 32 1139 l 118 1139 l 129 1065 q 226 1146 165 1146 z "},"Ņ":{"ha":346,"x_min":35,"x_max":313,"o":"m 219 1313 l 313 1313 l 313 0 l 214 0 l 122 850 l 114 850 l 128 404 l 128 0 l 35 0 l 35 1313 l 138 1313 l 226 508 l 235 508 l 219 951 l 219 1313 m 136 -68 l 136 -18 l 233 -18 l 233 -81 q 169 -137 233 -137 l 136 -137 l 136 -103 l 163 -103 q 185 -83 185 -103 l 185 -68 l 136 -68 z "},"ņ":{"ha":326,"x_min":32,"x_max":297,"o":"m 226 1146 q 297 1056 297 1146 l 297 0 l 196 0 l 196 1024 q 169 1054 196 1054 q 144 1042 154 1054 q 133 1011 133 1031 l 133 0 l 32 0 l 32 1139 l 118 1139 l 129 1065 q 226 1146 165 1146 m 119 -68 l 119 -18 l 217 -18 l 217 -81 q 153 -137 217 -137 l 119 -137 l 119 -103 l 146 -103 q 168 -83 168 -103 l 168 -68 l 119 -68 z "},"Ň":{"ha":346,"x_min":35,"x_max":313,"o":"m 271 1440 l 224 1342 l 139 1342 l 88 1440 l 136 1440 l 179 1378 l 224 1440 l 271 1440 m 235 508 l 219 951 l 219 1313 l 313 1313 l 313 0 l 214 0 l 122 850 l 114 850 l 128 404 l 128 0 l 35 0 l 35 1313 l 138 1313 l 226 508 l 235 508 z "},"ň":{"ha":326,"x_min":32,"x_max":297,"o":"m 254 1267 l 207 1168 l 122 1168 l 71 1267 l 119 1267 l 163 1204 l 207 1267 l 254 1267 m 226 1146 q 297 1056 297 1146 l 297 0 l 196 0 l 196 1024 q 169 1054 196 1054 q 144 1042 154 1054 q 133 1011 133 1031 l 133 0 l 32 0 l 32 1139 l 118 1139 l 129 1065 q 226 1146 165 1146 z "},"Ŋ":{"ha":346,"x_min":35,"x_max":313,"o":"m 219 1313 l 313 1313 l 313 -8 q 288 -78 313 -54 q 225 -103 264 -103 l 165 -103 l 165 -12 l 190 -12 q 211 15 211 -12 l 211 53 l 122 850 l 114 850 l 128 408 l 128 0 l 35 0 l 35 1313 l 138 1313 l 226 508 l 235 508 l 219 951 l 219 1313 z "},"ŋ":{"ha":326,"x_min":32,"x_max":297,"o":"m 226 1146 q 297 1056 297 1146 l 297 -4 q 273 -75 297 -50 q 210 -100 249 -100 q 151 -93 176 -100 l 151 -15 l 174 -15 q 196 13 196 -15 l 196 1024 q 169 1054 196 1054 q 144 1042 154 1054 q 133 1011 133 1031 l 133 0 l 32 0 l 32 1139 l 118 1139 l 129 1065 q 226 1146 165 1146 z "},"Ō":{"ha":342,"x_min":31,"x_max":311,"o":"m 71 1401 l 268 1401 l 268 1350 l 71 1350 l 71 1401 m 31 1176 q 171 1318 31 1318 q 311 1176 311 1318 l 311 138 q 275 31 311 68 q 171 -7 239 -7 q 67 31 103 -7 q 31 138 31 68 l 31 1176 m 206 128 l 206 1185 q 171 1226 206 1226 q 136 1185 136 1226 l 136 128 q 171 85 136 85 q 196 97 186 85 q 206 128 206 108 z "},"ō":{"ha":325,"x_min":28,"x_max":297,"o":"m 63 1226 l 260 1226 l 260 1175 l 63 1175 l 63 1226 m 164 1146 q 262 1110 226 1146 q 297 1006 297 1074 l 297 135 q 262 29 297 65 q 163 -7 226 -7 q 63 29 99 -7 q 28 135 28 65 l 28 1006 q 64 1110 28 1074 q 164 1146 100 1146 m 196 129 l 196 1011 q 164 1056 196 1056 q 129 1011 129 1056 l 129 129 q 163 83 129 83 q 196 129 196 83 z "},"Ő":{"ha":342,"x_min":31,"x_max":319,"o":"m 129 1440 l 217 1440 l 129 1342 l 78 1342 l 129 1440 m 232 1439 l 319 1439 l 232 1340 l 181 1340 l 232 1439 m 31 1176 q 171 1318 31 1318 q 311 1176 311 1318 l 311 138 q 275 31 311 68 q 171 -7 239 -7 q 67 31 103 -7 q 31 138 31 68 l 31 1176 m 206 128 l 206 1185 q 171 1226 206 1226 q 136 1185 136 1226 l 136 128 q 171 85 136 85 q 196 97 186 85 q 206 128 206 108 z "},"ő":{"ha":325,"x_min":28,"x_max":311,"o":"m 121 1265 l 208 1265 l 121 1167 l 69 1167 l 121 1265 m 224 1264 l 311 1264 l 224 1165 l 172 1165 l 224 1264 m 164 1146 q 262 1110 226 1146 q 297 1006 297 1074 l 297 135 q 262 29 297 65 q 163 -7 226 -7 q 63 29 99 -7 q 28 135 28 65 l 28 1006 q 64 1110 28 1074 q 164 1146 100 1146 m 196 129 l 196 1011 q 164 1056 196 1056 q 129 1011 129 1056 l 129 129 q 163 83 129 83 q 196 129 196 83 z "},"Œ":{"ha":429,"x_min":31,"x_max":415,"o":"m 415 93 l 415 0 l 224 0 q 171 -7 196 -7 q 67 31 103 -7 q 31 138 31 68 l 31 1176 q 171 1318 31 1318 q 219 1313 199 1318 l 413 1313 l 413 1219 l 314 1219 l 314 728 l 407 728 l 407 636 l 314 636 l 314 93 l 415 93 m 206 128 l 206 1185 q 171 1226 206 1226 q 136 1185 136 1226 l 136 128 q 171 85 136 85 q 196 97 186 85 q 206 128 206 108 z "},"œ":{"ha":492,"x_min":28,"x_max":464,"o":"m 297 597 l 297 129 q 332 83 297 83 q 364 122 364 83 l 364 554 l 464 554 l 464 119 q 428 27 464 61 q 332 -7 393 -7 q 247 17 279 -7 q 163 -7 213 -7 q 63 29 99 -7 q 28 135 28 65 l 28 1006 q 64 1110 28 1074 q 164 1146 100 1146 q 247 1122 213 1146 q 332 1146 282 1146 q 430 1110 396 1146 q 464 1010 464 1075 l 464 597 l 297 597 m 297 1014 l 297 683 l 364 683 l 364 1014 q 332 1057 364 1057 q 297 1014 297 1057 m 196 129 l 196 1011 q 164 1056 196 1056 q 129 1011 129 1056 l 129 129 q 163 83 129 83 q 196 129 196 83 z "},"Ŕ":{"ha":342,"x_min":35,"x_max":324,"o":"m 274 1439 l 186 1340 l 135 1340 l 186 1439 l 274 1439 m 324 0 l 219 0 l 185 533 l 138 533 l 138 0 l 35 0 l 35 1313 l 176 1313 q 276 1278 240 1313 q 313 1179 313 1244 l 313 676 q 276 578 313 614 l 324 0 m 139 626 l 165 626 q 207 676 207 626 l 207 1169 q 165 1219 207 1219 l 139 1219 l 139 626 z "},"ŕ":{"ha":308,"x_min":32,"x_max":292,"o":"m 175 1265 l 263 1265 l 175 1167 l 124 1167 l 175 1265 m 222 1146 q 273 1122 254 1146 q 292 1051 292 1097 l 292 524 l 190 524 l 190 1021 q 167 1054 190 1054 q 133 988 133 1054 l 133 0 l 32 0 l 32 1139 l 118 1139 l 129 1067 q 168 1127 147 1108 q 222 1146 189 1146 z "},"Ŗ":{"ha":342,"x_min":35,"x_max":324,"o":"m 138 533 l 138 0 l 35 0 l 35 1313 l 176 1313 q 276 1278 240 1313 q 313 1179 313 1244 l 313 676 q 276 578 313 614 l 324 0 l 219 0 l 185 533 l 138 533 m 139 1219 l 139 626 l 165 626 q 207 676 207 626 l 207 1169 q 165 1219 207 1219 l 139 1219 m 131 -68 l 131 -18 l 228 -18 l 228 -81 q 164 -137 228 -137 l 131 -137 l 131 -103 l 157 -103 q 179 -83 179 -103 l 179 -68 l 131 -68 z "},"ŗ":{"ha":308,"x_min":32,"x_max":292,"o":"m 222 1146 q 273 1122 254 1146 q 292 1051 292 1097 l 292 524 l 190 524 l 190 1021 q 167 1054 190 1054 q 133 988 133 1054 l 133 0 l 32 0 l 32 1139 l 118 1139 l 129 1067 q 168 1127 147 1108 q 222 1146 189 1146 m 119 -68 l 119 -18 l 217 -18 l 217 -81 q 153 -137 217 -137 l 119 -137 l 119 -103 l 146 -103 q 168 -83 168 -103 l 168 -68 l 119 -68 z "},"Ř":{"ha":342,"x_min":35,"x_max":324,"o":"m 218 1342 l 133 1342 l 82 1440 l 131 1440 l 174 1378 l 218 1440 l 265 1440 l 218 1342 m 324 0 l 219 0 l 185 533 l 138 533 l 138 0 l 35 0 l 35 1313 l 176 1313 q 276 1278 240 1313 q 313 1179 313 1244 l 313 676 q 276 578 313 614 l 324 0 m 139 626 l 165 626 q 207 676 207 626 l 207 1169 q 165 1219 207 1219 l 139 1219 l 139 626 z "},"ř":{"ha":308,"x_min":32,"x_max":292,"o":"m 254 1267 l 207 1168 l 122 1168 l 71 1267 l 119 1267 l 163 1204 l 207 1267 l 254 1267 m 222 1146 q 273 1122 254 1146 q 292 1051 292 1097 l 292 524 l 190 524 l 190 1021 q 167 1054 190 1054 q 133 988 133 1054 l 133 0 l 32 0 l 32 1139 l 118 1139 l 129 1067 q 168 1127 147 1108 q 222 1146 189 1146 z "},"Ś":{"ha":338,"x_min":29,"x_max":310,"o":"m 179 1440 l 267 1440 l 179 1342 l 128 1342 l 179 1440 m 306 831 l 203 831 l 203 1190 q 168 1226 203 1226 q 135 1193 135 1226 l 135 838 q 175 757 135 782 l 222 732 q 289 674 268 706 q 310 583 310 643 l 310 128 q 273 28 310 64 q 172 -7 236 -7 q 69 27 107 -7 q 31 121 31 61 l 31 556 l 135 556 l 135 125 q 171 85 135 85 q 204 124 204 85 l 204 553 q 163 638 204 613 l 113 664 q 49 722 68 689 q 29 814 29 754 l 29 1192 q 65 1284 29 1250 q 171 1318 101 1318 q 306 1196 306 1318 l 306 831 z "},"ś":{"ha":318,"x_min":24,"x_max":296,"o":"m 171 1265 l 258 1265 l 171 1167 l 119 1167 l 171 1265 m 217 638 q 278 588 260 618 q 296 504 296 557 l 296 122 q 259 27 296 61 q 161 -7 222 -7 q 61 25 97 -7 q 25 119 25 57 l 25 497 l 126 497 l 126 118 q 160 83 126 83 q 193 117 193 83 l 193 485 q 151 554 193 532 l 99 576 q 24 700 24 610 l 24 1019 q 60 1112 24 1078 q 158 1146 96 1146 q 256 1114 222 1146 q 290 1028 290 1082 l 290 715 l 190 715 l 190 1019 q 158 1057 190 1057 q 126 1024 126 1057 l 126 719 q 164 661 126 679 l 217 638 z "},"Ş":{"ha":338,"x_min":29,"x_max":310,"o":"m 222 732 q 289 674 268 706 q 310 583 310 643 l 310 128 q 274 30 310 65 q 175 -7 238 -6 l 150 -54 q 192 -29 169 -29 q 225 -71 225 -29 l 225 -89 q 208 -131 225 -117 q 163 -146 190 -146 q 100 -90 100 -146 l 100 -79 l 153 -79 l 153 -99 q 161 -111 153 -111 q 169 -99 169 -111 l 169 -79 q 154 -61 169 -61 l 104 -61 l 135 -4 q 58 38 85 6 q 31 121 31 71 l 31 556 l 135 556 l 135 125 q 171 85 135 85 q 204 124 204 85 l 204 553 q 163 638 204 613 l 113 664 q 49 722 68 689 q 29 814 29 754 l 29 1192 q 65 1284 29 1250 q 171 1318 101 1318 q 306 1196 306 1318 l 306 831 l 203 831 l 203 1190 q 168 1226 203 1226 q 135 1193 135 1226 l 135 838 q 175 757 135 782 l 222 732 z "},"ş":{"ha":318,"x_min":24,"x_max":296,"o":"m 217 638 q 278 588 260 618 q 296 504 296 557 l 296 122 q 260 28 296 63 q 165 -7 225 -6 l 140 -54 q 182 -29 158 -29 q 215 -71 215 -29 l 215 -89 q 198 -131 215 -117 q 153 -146 181 -146 q 90 -90 90 -146 l 90 -79 l 143 -79 l 143 -99 q 151 -111 143 -111 q 160 -99 160 -111 l 160 -79 q 144 -61 160 -61 l 94 -61 l 125 -4 q 25 119 25 14 l 25 497 l 126 497 l 126 118 q 160 83 126 83 q 193 117 193 83 l 193 485 q 151 554 193 532 l 99 576 q 24 700 24 610 l 24 1019 q 60 1112 24 1078 q 158 1146 96 1146 q 256 1114 222 1146 q 290 1028 290 1082 l 290 715 l 190 715 l 190 1019 q 158 1057 190 1057 q 126 1024 126 1057 l 126 719 q 164 661 126 679 l 217 638 z "},"Š":{"ha":338,"x_min":29,"x_max":310,"o":"m 258 1442 l 211 1343 l 126 1343 l 75 1442 l 124 1442 l 167 1379 l 211 1442 l 258 1442 m 306 831 l 203 831 l 203 1190 q 168 1226 203 1226 q 135 1193 135 1226 l 135 838 q 175 757 135 782 l 222 732 q 289 674 268 706 q 310 583 310 643 l 310 128 q 273 28 310 64 q 172 -7 236 -7 q 69 27 107 -7 q 31 121 31 61 l 31 556 l 135 556 l 135 125 q 171 85 135 85 q 204 124 204 85 l 204 553 q 163 638 204 613 l 113 664 q 49 722 68 689 q 29 814 29 754 l 29 1192 q 65 1284 29 1250 q 171 1318 101 1318 q 306 1196 306 1318 l 306 831 z "},"š":{"ha":318,"x_min":24,"x_max":296,"o":"m 250 1267 l 203 1168 l 118 1168 l 67 1267 l 115 1267 l 158 1204 l 203 1267 l 250 1267 m 217 638 q 278 588 260 618 q 296 504 296 557 l 296 122 q 259 27 296 61 q 161 -7 222 -7 q 61 25 97 -7 q 25 119 25 57 l 25 497 l 126 497 l 126 118 q 160 83 126 83 q 193 117 193 83 l 193 485 q 151 554 193 532 l 99 576 q 24 700 24 610 l 24 1019 q 60 1112 24 1078 q 158 1146 96 1146 q 256 1114 222 1146 q 290 1028 290 1082 l 290 715 l 190 715 l 190 1019 q 158 1057 190 1057 q 126 1024 126 1057 l 126 719 q 164 661 126 679 l 217 638 z "},"Ţ":{"ha":271,"x_min":-1,"x_max":271,"o":"m 188 0 l 144 0 l 117 -53 q 158 -28 136 -28 q 192 -69 192 -28 l 192 -87 q 174 -130 192 -115 q 129 -144 157 -144 q 67 -89 67 -144 l 67 -78 l 119 -78 l 119 -97 q 128 -110 119 -110 q 136 -97 136 -110 l 136 -78 q 121 -60 136 -60 l 71 -60 l 103 0 l 83 0 l 83 1218 l -1 1218 l -1 1311 l 271 1313 l 271 1219 l 188 1219 l 188 0 z "},"ţ":{"ha":225,"x_min":6,"x_max":221,"o":"m 163 0 l 149 0 l 119 -53 q 161 -28 139 -28 q 194 -69 194 -28 l 194 -87 q 177 -130 194 -115 q 132 -144 160 -144 q 69 -89 69 -144 l 69 -78 l 122 -78 l 122 -97 q 131 -110 122 -110 q 139 -97 139 -110 l 139 -78 q 124 -60 139 -60 l 74 -60 l 111 10 q 56 107 56 32 l 56 1053 l 6 1053 l 6 1139 q 64 1173 49 1139 q 83 1296 79 1207 l 157 1296 l 157 1139 l 219 1139 l 219 1053 l 157 1053 l 157 133 q 189 90 157 90 l 221 90 l 221 0 l 163 0 z "},"Ť":{"ha":271,"x_min":-1,"x_max":271,"o":"m 226 1440 l 179 1342 l 94 1342 l 43 1440 l 92 1440 l 135 1378 l 179 1440 l 226 1440 m 271 1313 l 271 1219 l 188 1219 l 188 0 l 83 0 l 83 1218 l -1 1218 l -1 1311 l 271 1313 z "},"ť":{"ha":308,"x_min":6,"x_max":303,"o":"m 157 133 q 189 90 157 90 l 221 90 l 221 0 l 163 0 q 84 27 113 0 q 56 107 56 54 l 56 1053 l 6 1053 l 6 1139 q 64 1173 49 1139 q 83 1296 79 1207 l 157 1296 l 157 1139 l 219 1139 l 219 1053 l 157 1053 l 157 133 m 233 1296 l 303 1296 l 303 1111 q 246 1047 303 1047 l 233 1047 l 233 1086 l 240 1086 q 263 1114 263 1086 l 263 1174 l 233 1174 l 233 1296 z "},"Ŧ":{"ha":271,"x_min":-1,"x_max":271,"o":"m 271 1219 l 188 1219 l 188 683 l 224 683 l 224 632 l 188 632 l 188 0 l 83 0 l 83 632 l 46 632 l 46 683 l 83 683 l 83 1218 l -1 1218 l -1 1311 l 271 1313 l 271 1219 z "},"ŧ":{"ha":213,"x_min":6,"x_max":221,"o":"m 189 90 l 221 90 l 221 0 l 163 0 q 84 27 113 0 q 56 107 56 54 l 56 581 l 7 581 l 7 633 l 56 633 l 56 1053 l 6 1053 l 6 1139 q 64 1173 49 1139 q 83 1296 79 1207 l 157 1296 l 157 1139 l 219 1139 l 219 1053 l 157 1053 l 157 633 l 218 633 l 218 581 l 157 581 l 157 133 q 189 90 157 90 z "},"Ū":{"ha":342,"x_min":33,"x_max":308,"o":"m 71 1400 l 268 1400 l 268 1349 l 71 1349 l 71 1400 m 308 1313 l 308 119 q 272 26 308 58 q 171 -7 235 -7 q 70 25 107 -7 q 33 118 33 57 l 33 1313 l 138 1313 l 138 125 q 171 85 138 85 q 203 125 203 85 l 203 1313 l 308 1313 z "},"ū":{"ha":326,"x_min":29,"x_max":294,"o":"m 63 1226 l 260 1226 l 260 1175 l 63 1175 l 63 1226 m 193 1139 l 294 1139 l 294 0 l 207 0 l 196 74 q 99 -6 163 -7 q 29 86 29 -6 l 29 1139 l 131 1139 l 131 115 q 157 85 131 85 q 182 97 171 85 q 193 128 193 108 l 193 1139 z "},"Ů":{"ha":342,"x_min":33,"x_max":308,"o":"m 175 1326 q 132 1342 149 1326 q 115 1383 115 1358 q 132 1424 115 1408 q 175 1439 149 1439 q 216 1424 200 1439 q 232 1383 232 1408 q 215 1342 232 1358 q 175 1326 199 1326 m 174 1358 q 191 1365 183 1358 q 199 1383 199 1372 q 191 1401 199 1394 q 174 1408 183 1408 q 149 1383 149 1408 q 174 1358 149 1358 m 308 1313 l 308 119 q 272 26 308 58 q 171 -7 235 -7 q 70 25 107 -7 q 33 118 33 57 l 33 1313 l 138 1313 l 138 125 q 171 85 138 85 q 203 125 203 85 l 203 1313 l 308 1313 z "},"ů":{"ha":326,"x_min":29,"x_max":294,"o":"m 167 1153 q 124 1169 140 1153 q 107 1210 107 1185 q 124 1250 107 1235 q 167 1265 140 1265 q 208 1250 192 1265 q 224 1210 224 1235 q 207 1169 224 1185 q 167 1153 190 1153 m 165 1185 q 183 1192 175 1185 q 190 1210 190 1200 q 183 1227 190 1219 q 165 1235 175 1235 q 140 1210 140 1235 q 165 1185 140 1185 m 193 1139 l 294 1139 l 294 0 l 207 0 l 196 74 q 99 -6 163 -7 q 29 86 29 -6 l 29 1139 l 131 1139 l 131 115 q 157 85 131 85 q 182 97 171 85 q 193 128 193 108 l 193 1139 z "},"Ű":{"ha":342,"x_min":33,"x_max":319,"o":"m 129 1439 l 217 1439 l 129 1340 l 78 1340 l 129 1439 m 232 1438 l 319 1438 l 232 1339 l 181 1339 l 232 1438 m 308 1313 l 308 119 q 272 26 308 58 q 171 -7 235 -7 q 70 25 107 -7 q 33 118 33 57 l 33 1313 l 138 1313 l 138 125 q 171 85 138 85 q 203 125 203 85 l 203 1313 l 308 1313 z "},"ű":{"ha":326,"x_min":29,"x_max":311,"o":"m 121 1265 l 208 1265 l 121 1167 l 69 1167 l 121 1265 m 224 1264 l 311 1264 l 224 1165 l 172 1165 l 224 1264 m 193 1139 l 294 1139 l 294 0 l 207 0 l 196 74 q 99 -6 163 -7 q 29 86 29 -6 l 29 1139 l 131 1139 l 131 115 q 157 85 131 85 q 182 97 171 85 q 193 128 193 108 l 193 1139 z "},"Ų":{"ha":342,"x_min":33,"x_max":308,"o":"m 203 1313 l 308 1313 l 308 119 q 197 -6 308 8 q 174 -44 174 -19 q 196 -68 174 -68 q 240 -56 218 -68 l 240 -104 q 163 -129 210 -129 q 116 -112 135 -129 q 97 -68 97 -96 q 133 -4 97 -28 q 33 118 33 15 l 33 1313 l 138 1313 l 138 125 q 171 85 138 85 q 203 125 203 85 l 203 1313 z "},"ų":{"ha":326,"x_min":29,"x_max":294,"o":"m 260 0 q 228 -16 242 -4 q 215 -47 215 -28 q 238 -71 215 -71 q 282 -58 260 -71 l 282 -107 q 204 -132 251 -132 q 158 -115 176 -132 q 139 -71 139 -99 q 158 -23 139 -46 q 206 8 176 0 l 196 74 q 99 -6 163 -7 q 29 86 29 -6 l 29 1139 l 131 1139 l 131 115 q 157 85 131 85 q 182 97 171 85 q 193 128 193 108 l 193 1139 l 294 1139 l 294 0 l 260 0 z "},"Ŵ":{"ha":507,"x_min":6,"x_max":503,"o":"m 346 1340 l 299 1340 l 254 1403 l 211 1340 l 163 1340 l 214 1439 l 299 1439 l 346 1340 m 358 365 l 367 365 l 374 654 l 393 1313 l 503 1313 l 426 0 l 307 0 l 268 660 l 256 985 l 249 985 l 239 660 l 199 0 l 79 0 l 6 1313 l 114 1313 l 135 654 l 142 368 l 150 368 l 160 654 l 200 1313 l 307 1313 l 347 654 l 358 365 z "},"ŵ":{"ha":469,"x_min":11,"x_max":458,"o":"m 328 1167 l 281 1167 l 236 1229 l 193 1167 l 144 1167 l 196 1265 l 281 1265 l 328 1167 m 336 321 l 342 519 l 354 1140 l 458 1140 l 401 0 l 283 0 l 249 553 l 242 793 l 232 793 l 224 553 l 188 0 l 68 0 l 11 1140 l 115 1140 l 131 519 l 136 321 l 146 321 l 153 519 l 189 1140 l 283 1140 l 319 519 l 328 321 l 336 321 z "},"Ŷ":{"ha":333,"x_min":4,"x_max":332,"o":"m 258 1340 l 211 1340 l 167 1403 l 124 1340 l 75 1340 l 126 1439 l 211 1439 l 258 1340 m 174 657 l 186 835 l 218 1313 l 332 1313 l 219 326 l 219 0 l 115 0 l 115 328 l 4 1313 l 118 1313 l 153 835 l 164 657 l 174 657 z "},"ŷ":{"ha":310,"x_min":6,"x_max":299,"o":"m 240 1167 l 193 1167 l 149 1229 l 106 1167 l 57 1167 l 108 1265 l 193 1265 l 240 1167 m 161 247 l 171 488 l 193 1139 l 299 1139 l 218 -21 q 74 -147 201 -147 l 6 -147 l 6 -58 l 54 -58 q 96 -29 92 -58 l 11 1139 l 115 1139 l 142 488 l 151 247 l 161 247 z "},"Ÿ":{"ha":333,"x_min":4,"x_max":332,"o":"m 75 1439 l 147 1439 l 147 1340 l 75 1340 l 75 1439 m 189 1439 l 260 1439 l 260 1340 l 189 1340 l 189 1439 m 174 657 l 186 835 l 218 1313 l 332 1313 l 219 326 l 219 0 l 115 0 l 115 328 l 4 1313 l 118 1313 l 153 835 l 164 657 l 174 657 z "},"Ź":{"ha":278,"x_min":10,"x_max":269,"o":"m 156 1439 l 243 1439 l 156 1340 l 104 1340 l 156 1439 m 122 93 l 269 93 l 269 0 l 10 0 l 10 89 l 147 1219 l 14 1219 l 14 1313 l 258 1313 l 256 1222 l 122 93 z "},"ź":{"ha":247,"x_min":10,"x_max":239,"o":"m 129 1265 l 217 1265 l 129 1167 l 78 1167 l 129 1265 m 110 88 l 239 88 l 239 0 l 10 0 l 10 82 l 131 1053 l 13 1053 l 13 1139 l 236 1139 l 236 1057 l 110 88 z "},"Ż":{"ha":278,"x_min":10,"x_max":269,"o":"m 107 1439 l 179 1439 l 179 1340 l 107 1340 l 107 1439 m 122 93 l 269 93 l 269 0 l 10 0 l 10 89 l 147 1219 l 14 1219 l 14 1313 l 258 1313 l 256 1222 l 122 93 z "},"ż":{"ha":247,"x_min":10,"x_max":239,"o":"m 81 1265 l 153 1265 l 153 1167 l 81 1167 l 81 1265 m 110 88 l 239 88 l 239 0 l 10 0 l 10 82 l 131 1053 l 13 1053 l 13 1139 l 236 1139 l 236 1057 l 110 88 z "},"Ž":{"ha":278,"x_min":10,"x_max":269,"o":"m 235 1440 l 188 1342 l 103 1342 l 51 1440 l 100 1440 l 143 1378 l 188 1440 l 235 1440 m 122 93 l 269 93 l 269 0 l 10 0 l 10 89 l 147 1219 l 14 1219 l 14 1313 l 258 1313 l 256 1222 l 122 93 z "},"ž":{"ha":247,"x_min":10,"x_max":239,"o":"m 208 1267 l 161 1168 l 76 1168 l 25 1267 l 74 1267 l 117 1204 l 161 1267 l 208 1267 m 110 88 l 239 88 l 239 0 l 10 0 l 10 82 l 131 1053 l 13 1053 l 13 1139 l 236 1139 l 236 1057 l 110 88 z "},"Ș":{"ha":338,"x_min":29,"x_max":310,"o":"m 222 732 q 289 674 268 706 q 310 583 310 643 l 310 128 q 273 28 310 64 q 172 -7 236 -7 q 69 27 107 -7 q 31 121 31 61 l 31 556 l 135 556 l 135 125 q 171 85 135 85 q 204 124 204 85 l 204 553 q 163 638 204 613 l 113 664 q 49 722 68 689 q 29 814 29 754 l 29 1192 q 65 1284 29 1250 q 171 1318 101 1318 q 306 1196 306 1318 l 306 831 l 203 831 l 203 1190 q 168 1226 203 1226 q 135 1193 135 1226 l 135 838 q 175 757 135 782 l 222 732 m 125 -69 l 125 -19 l 222 -19 l 222 -82 q 158 -139 222 -139 l 125 -139 l 125 -104 l 151 -104 q 174 -85 174 -104 l 174 -69 l 125 -69 z "},"ș":{"ha":318,"x_min":24,"x_max":296,"o":"m 217 638 q 278 588 260 618 q 296 504 296 557 l 296 122 q 259 27 296 61 q 161 -7 222 -7 q 61 25 97 -7 q 25 119 25 57 l 25 497 l 126 497 l 126 118 q 160 83 126 83 q 193 117 193 83 l 193 485 q 151 554 193 532 l 99 576 q 24 700 24 610 l 24 1019 q 60 1112 24 1078 q 158 1146 96 1146 q 256 1114 222 1146 q 290 1028 290 1082 l 290 715 l 190 715 l 190 1019 q 158 1057 190 1057 q 126 1024 126 1057 l 126 719 q 164 661 126 679 l 217 638 m 115 -69 l 115 -19 l 213 -19 l 213 -82 q 149 -139 213 -139 l 115 -139 l 115 -104 l 142 -104 q 164 -85 164 -104 l 164 -69 l 115 -69 z "},"Ț":{"ha":271,"x_min":-1,"x_max":271,"o":"m -1 1311 l 271 1313 l 271 1219 l 188 1219 l 188 0 l 83 0 l 83 1218 l -1 1218 l -1 1311 m 92 -68 l 92 -18 l 189 -18 l 189 -81 q 125 -137 189 -137 l 92 -137 l 92 -103 l 118 -103 q 140 -83 140 -103 l 140 -68 l 92 -68 z "},"ț":{"ha":225,"x_min":6,"x_max":221,"o":"m 189 90 l 221 90 l 221 0 l 163 0 q 84 27 113 0 q 56 107 56 54 l 56 1053 l 6 1053 l 6 1139 q 64 1173 49 1139 q 83 1296 79 1207 l 157 1296 l 157 1139 l 219 1139 l 219 1053 l 157 1053 l 157 133 q 189 90 157 90 m 94 -68 l 94 -18 l 192 -18 l 192 -81 q 128 -137 192 -137 l 94 -137 l 94 -103 l 121 -103 q 143 -83 143 -103 l 143 -68 l 94 -68 z "},"Ẁ":{"ha":507,"x_min":6,"x_max":503,"o":"m 244 1438 l 296 1339 l 244 1339 l 157 1438 l 244 1438 m 358 365 l 367 365 l 374 654 l 393 1313 l 503 1313 l 426 0 l 307 0 l 268 660 l 256 985 l 249 985 l 239 660 l 199 0 l 79 0 l 6 1313 l 114 1313 l 135 654 l 142 368 l 150 368 l 160 654 l 200 1313 l 307 1313 l 347 654 l 358 365 z "},"ẁ":{"ha":469,"x_min":11,"x_max":458,"o":"m 226 1264 l 278 1165 l 226 1165 l 139 1264 l 226 1264 m 336 321 l 342 519 l 354 1140 l 458 1140 l 401 0 l 283 0 l 249 553 l 242 793 l 232 793 l 224 553 l 188 0 l 68 0 l 11 1140 l 115 1140 l 131 519 l 136 321 l 146 321 l 153 519 l 189 1140 l 283 1140 l 319 519 l 328 321 l 336 321 z "},"Ẃ":{"ha":507,"x_min":6,"x_max":503,"o":"m 267 1439 l 354 1439 l 267 1340 l 215 1340 l 267 1439 m 358 365 l 367 365 l 374 654 l 393 1313 l 503 1313 l 426 0 l 307 0 l 268 660 l 256 985 l 249 985 l 239 660 l 199 0 l 79 0 l 6 1313 l 114 1313 l 135 654 l 142 368 l 150 368 l 160 654 l 200 1313 l 307 1313 l 347 654 l 358 365 z "},"ẃ":{"ha":469,"x_min":11,"x_max":458,"o":"m 249 1265 l 336 1265 l 249 1167 l 197 1167 l 249 1265 m 336 321 l 342 519 l 354 1140 l 458 1140 l 401 0 l 283 0 l 249 553 l 242 793 l 232 793 l 224 553 l 188 0 l 68 0 l 11 1140 l 115 1140 l 131 519 l 136 321 l 146 321 l 153 519 l 189 1140 l 283 1140 l 319 519 l 328 321 l 336 321 z "},"Ẅ":{"ha":507,"x_min":6,"x_max":503,"o":"m 163 1439 l 235 1439 l 235 1340 l 163 1340 l 163 1439 m 276 1439 l 347 1439 l 347 1340 l 276 1340 l 276 1439 m 358 365 l 367 365 l 374 654 l 393 1313 l 503 1313 l 426 0 l 307 0 l 268 660 l 256 985 l 249 985 l 239 660 l 199 0 l 79 0 l 6 1313 l 114 1313 l 135 654 l 142 368 l 150 368 l 160 654 l 200 1313 l 307 1313 l 347 654 l 358 365 z "},"ẅ":{"ha":469,"x_min":11,"x_max":458,"o":"m 144 1265 l 217 1265 l 217 1167 l 144 1167 l 144 1265 m 258 1265 l 329 1265 l 329 1167 l 258 1167 l 258 1265 m 336 321 l 342 519 l 354 1140 l 458 1140 l 401 0 l 283 0 l 249 553 l 242 793 l 232 793 l 224 553 l 188 0 l 68 0 l 11 1140 l 115 1140 l 131 519 l 136 321 l 146 321 l 153 519 l 189 1140 l 283 1140 l 319 519 l 328 321 l 336 321 z "},"Ỳ":{"ha":333,"x_min":4,"x_max":332,"o":"m 157 1438 l 208 1339 l 157 1339 l 69 1438 l 157 1438 m 174 657 l 186 835 l 218 1313 l 332 1313 l 219 326 l 219 0 l 115 0 l 115 328 l 4 1313 l 118 1313 l 153 835 l 164 657 l 174 657 z "},"ỳ":{"ha":310,"x_min":6,"x_max":299,"o":"m 139 1264 l 190 1165 l 139 1165 l 51 1264 l 139 1264 m 161 247 l 171 488 l 193 1139 l 299 1139 l 218 -21 q 74 -147 201 -147 l 6 -147 l 6 -58 l 54 -58 q 96 -29 92 -58 l 11 1139 l 115 1139 l 142 488 l 151 247 l 161 247 z "},"–":{"ha":265,"x_min":11,"x_max":254,"o":"m 11 715 l 254 715 l 254 624 l 11 624 l 11 715 z "},"—":{"ha":411,"x_min":11,"x_max":399,"o":"m 11 715 l 399 715 l 399 624 l 11 624 l 11 715 z "},"‘":{"ha":174,"x_min":33,"x_max":143,"o":"m 119 1269 q 93 1242 93 1269 l 93 1194 l 142 1194 l 142 1057 l 33 1057 l 33 1247 q 107 1319 33 1319 l 143 1319 l 143 1269 l 119 1269 z "},"’":{"ha":174,"x_min":32,"x_max":142,"o":"m 33 1313 l 142 1313 l 142 1122 q 68 1050 142 1050 l 32 1050 l 32 1100 l 56 1100 q 82 1128 82 1100 l 82 1175 l 33 1175 l 33 1313 z "},"‚":{"ha":174,"x_min":32,"x_max":142,"o":"m 33 138 l 142 138 l 142 -53 q 68 -125 142 -125 l 32 -125 l 32 -75 l 56 -75 q 82 -47 82 -75 l 82 0 l 33 0 l 33 138 z "},"“":{"ha":331,"x_min":33,"x_max":300,"o":"m 33 1249 q 107 1321 33 1321 l 143 1321 l 143 1271 l 119 1271 q 93 1243 93 1271 l 93 1196 l 142 1196 l 142 1058 l 33 1058 l 33 1249 m 276 1271 q 250 1243 250 1271 l 250 1196 l 299 1196 l 299 1058 l 190 1058 l 190 1249 q 264 1321 190 1321 l 300 1321 l 300 1271 l 276 1271 z "},"”":{"ha":331,"x_min":32,"x_max":299,"o":"m 33 1175 l 33 1313 l 142 1313 l 142 1122 q 68 1050 142 1050 l 32 1050 l 32 1100 l 56 1100 q 82 1128 82 1100 l 82 1175 l 33 1175 m 190 1313 l 299 1313 l 299 1122 q 225 1050 299 1050 l 189 1050 l 189 1100 l 213 1100 q 239 1128 239 1100 l 239 1175 l 190 1175 l 190 1313 z "},"„":{"ha":331,"x_min":32,"x_max":299,"o":"m 33 0 l 33 138 l 142 138 l 142 -53 q 68 -125 142 -125 l 32 -125 l 32 -75 l 56 -75 q 82 -47 82 -75 l 82 0 l 33 0 m 190 138 l 299 138 l 299 -53 q 225 -125 299 -125 l 189 -125 l 189 -75 l 213 -75 q 239 -47 239 -75 l 239 0 l 190 0 l 190 138 z "},"†":{"ha":240,"x_min":22,"x_max":218,"o":"m 218 1139 l 218 1063 l 161 1063 l 161 708 q 125 664 133 693 q 113 556 117 635 l 79 556 l 79 1063 l 22 1063 l 22 1139 l 79 1139 q 115 1186 107 1154 q 128 1294 124 1218 l 161 1294 l 161 1139 l 218 1139 z "},"‡":{"ha":240,"x_min":22,"x_max":218,"o":"m 218 1063 l 161 1063 l 161 786 l 218 786 l 218 708 l 161 708 q 125 664 133 693 q 113 556 117 635 l 79 556 l 79 708 l 22 708 l 22 786 l 79 786 l 79 1063 l 22 1063 l 22 1139 l 79 1139 q 115 1186 107 1154 q 128 1294 124 1218 l 161 1294 l 161 1139 l 218 1139 l 218 1063 z "},"•":{"ha":274,"x_min":40,"x_max":260,"o":"m 260 772 l 260 496 l 40 496 l 40 772 l 260 772 z "},"…":{"ha":519,"x_min":33,"x_max":488,"o":"m 142 138 l 142 0 l 33 0 l 33 138 l 142 138 m 314 138 l 314 0 l 206 0 l 206 138 l 314 138 m 488 138 l 488 0 l 379 0 l 379 138 l 488 138 z "},"‹":{"ha":261,"x_min":25,"x_max":231,"o":"m 231 1139 l 128 569 l 231 0 l 126 0 l 25 569 l 126 1139 l 231 1139 z "},"›":{"ha":261,"x_min":31,"x_max":236,"o":"m 135 1139 l 236 569 l 135 0 l 31 0 l 133 569 l 31 1139 l 135 1139 z "},"€":{"ha":381,"x_min":31,"x_max":351,"o":"m 351 807 l 249 807 l 249 1186 q 215 1228 249 1228 q 179 1186 179 1228 l 179 743 l 319 743 l 319 696 l 179 696 l 179 650 l 319 650 l 319 604 l 179 604 l 179 128 q 214 85 179 85 q 249 128 249 85 l 249 535 l 351 535 l 351 124 q 317 28 351 63 q 215 -7 282 -7 q 112 28 149 -7 q 75 129 75 63 l 75 604 l 31 604 l 31 650 l 75 650 l 75 696 l 31 696 l 31 743 l 75 743 l 75 1185 q 112 1284 75 1250 q 215 1318 149 1318 q 317 1285 282 1318 q 351 1190 351 1251 l 351 807 z "},"™":{"ha":356,"x_min":14,"x_max":333,"o":"m 138 1313 l 138 1264 l 103 1264 l 103 725 l 47 725 l 47 1264 l 14 1264 l 14 1313 l 138 1313 m 146 1313 l 213 1313 l 233 1067 l 240 935 l 244 1067 l 268 1313 l 333 1313 l 333 725 l 283 725 l 283 926 l 288 1156 l 256 725 l 222 725 l 190 1157 l 196 926 l 196 725 l 146 725 l 146 1313 z "},"◊":{"ha":458,"x_min":35,"x_max":424,"o":"m 322 1313 l 424 589 l 322 -133 l 136 -133 l 35 589 l 136 1313 l 322 1313 m 229 -56 l 321 589 l 229 1235 l 138 589 l 229 -56 z "}}}
